<svg xmlns="http://www.w3.org/2000/svg" xmlns:xlink="http://www.w3.org/1999/xlink" fill="none" version="1.1" width="20" height="20" viewBox="0 0 20 20"><defs><clipPath id="master_svg0_4_93"><rect x="0" y="0" width="20" height="20" rx="0"/></clipPath></defs><g clip-path="url(#master_svg0_4_93)"><g transform="matrix(-1,-5.2146120310681e-8,5.2146120310681e-8,-1,25.83251874905183,30.000244814157835)"><path d="M18.269812065625,15.3536754803125Q18.340138465625,15.2833493303125,18.378198665625,15.1914638003125Q18.416258765625,15.0995782543125,18.416258765625,15.0001220703125Q18.416258765625,14.9508763703125,18.406651465625,14.9025769163125Q18.397044165625,14.8542774603125,18.378198165625,14.8087803703125Q18.359352565625,14.7632832803125,18.331993565624998,14.7223370103125Q18.304634065625,14.6813907003125,18.269812065625,14.6465687203125Q18.234990165625,14.6117467603125,18.194043665625,14.5843873303125Q18.153097165625,14.5570278803125,18.107600165625,14.5381823503125Q18.062103265624998,14.5193368203125,18.013803465625,14.5097294703125Q17.965504165625,14.5001221003125,17.916258765625,14.5001220703125Q17.816802465625,14.5001221003125,17.724916965625,14.538182320312501Q17.633031365625,14.5762425703125,17.562705565625002,14.6465686603125L17.562468565625,14.6468059103125L12.209153115625,20.0001215703125L17.562220565625,25.3531900703125L17.562705565625002,25.353675070312498Q17.633031365625,25.424000070312502,17.724916965625,25.4620610703125Q17.816802065624998,25.500121070312503,17.916258765625,25.5001220703125Q17.965504165625,25.5001220703125,18.013803465625,25.490515070312497Q18.062103265624998,25.480907070312497,18.107600165625,25.4620610703125Q18.153097165625,25.443215070312498,18.194043665625,25.4158560703125Q18.234990165625,25.3884960703125,18.269812065625,25.353675070312498Q18.304634065625,25.3188530703125,18.331993565624998,25.2779060703125Q18.359353065625,25.2369590703125,18.378198665625,25.1914620703125Q18.397044165625,25.1459660703125,18.406651465625,25.0976660703125Q18.416258765625,25.0493680703125,18.416258765625,25.0001220703125Q18.416258365624998,24.9006652703125,18.378198165625,24.8087796703125Q18.340137965625,24.7168941703125,18.269812065625,24.6465682703125L13.623366415625,20.0001215703125L18.269575165625,15.3539124703125L18.269812065625,15.3536753903125L18.269812065625,15.3536754803125Z" fill-rule="evenodd" fill="#BDBDBD" fill-opacity="1"/></g></g></svg>