<svg xmlns="http://www.w3.org/2000/svg" xmlns:xlink="http://www.w3.org/1999/xlink" fill="none" version="1.1" width="32" height="32" viewBox="0 0 32 32"><defs><clipPath id="master_svg0_4_0421"><rect x="0" y="0" width="32" height="32" rx="0"/></clipPath><clipPath id="master_svg1_4_0421/4_70"><rect x="4" y="4" width="24" height="24" rx="0"/></clipPath></defs><g><g clip-path="url(#master_svg0_4_0421)"><g><ellipse cx="16" cy="16" rx="14" ry="14" fill="#FFFFFF" fill-opacity="0.23999999463558197"/><path d="M30,16Q30,16.34368,29.983135,16.686948Q29.96627,17.030214,29.932585,17.372239999999998Q29.898897,17.714266000000002,29.848469,18.054226Q29.798038,18.394186,29.730991,18.731262Q29.66394,19.06834,29.580435,19.401722Q29.496927,19.735104,29.397163,20.063986Q29.297398,20.392868,29.181612,20.716457Q29.06583,21.040047,28.934309,21.357567Q28.802788,21.675087,28.655846,21.985771Q28.508904,22.296455,28.346895,22.599554Q28.184885,22.902653,28.008198,23.197437Q27.831511,23.492222,27.640572,23.777981Q27.449633,24.06374,27.244904,24.339787Q27.040173,24.615835,26.822145,24.881506Q26.604116,25.147175,26.373314,25.401825Q26.142513,25.656475,25.899494,25.899494Q25.656475,26.142513,25.401825,26.373316Q25.147175,26.604116,24.881506,26.822145Q24.615835,27.040173,24.339787,27.244902Q24.06374,27.449633,23.777981,27.640572Q23.492222,27.831511,23.197437,28.008198Q22.902653,28.184887,22.599554,28.346897Q22.296455,28.508907,21.985771,28.655849Q21.675087,28.802792,21.357567,28.934311Q21.040047,29.065832,20.716457,29.181616Q20.392868,29.297398,20.063986,29.397165Q19.735104,29.496929,19.401722,29.580437Q19.06834,29.663942,18.731262,29.730991Q18.394186,29.798038,18.054226,29.848469Q17.714266000000002,29.898899,17.372239999999998,29.932587Q17.030214,29.966272,16.686947,29.983135Q16.34368,30,16,30Q15.65632,30,15.313053,29.983135Q14.969787,29.96627,14.627761,29.932585Q14.285734,29.898897,13.945773,29.848469Q13.605812,29.798038,13.268735,29.730991Q12.931658,29.66394,12.598277,29.580435Q12.264896,29.496927,11.9360142,29.397163Q11.607132,29.297398,11.2835417,29.181612Q10.9599514,29.06583,10.6424313,28.934309Q10.3249111,28.802788,10.0142288,28.655846Q9.7035446,28.508904,9.400445900000001,28.346895Q9.0973463,28.184885,8.8025608,28.008198Q8.5077763,27.831511,8.2220163,27.640572Q7.9362564,27.449633,7.6602097,27.244904Q7.3841629,27.040173,7.118494,26.822145Q6.8528252,26.604116,6.5981741,26.373314Q6.343524,26.142513,6.1005049,25.899494Q5.8574858,25.656475,5.626684,25.401825Q5.3958821,25.147175,5.177853600000001,24.881506Q4.9598248,24.615835,4.7550945,24.339787Q4.550364,24.06374,4.3594253,23.777981Q4.1684864,23.492222,3.9917994,23.197437Q3.8151121,22.902653,3.6531022,22.599554Q3.4910921,22.296455,3.3441497,21.985771Q3.1972072000000002,21.675087,3.0656863000000003,21.357567Q2.93416548,21.040047,2.81838298,20.716457Q2.70260042,20.392868,2.60283518,20.063986Q2.50306994,19.735104,2.41956237,19.401722Q2.33605477,19.06834,2.26900601,18.731262Q2.20195724,18.394186,2.15152884,18.054226Q2.1011004,17.714266000000002,2.067413814,17.372239999999998Q2.033727217,17.030214,2.016863609,16.686947Q2,16.34368,2,16Q2,15.65632,2.016863609,15.313053Q2.033727217,14.969787,2.067413814,14.627761Q2.1011004,14.285734,2.1515288200000002,13.945773Q2.20195724,13.605812,2.26900601,13.268735Q2.33605477,12.931658,2.41956234,12.598277Q2.50306994,12.264896,2.60283518,11.9360142Q2.70260042,11.607132,2.81838292,11.2835417Q2.93416548,10.9599514,3.0656863000000003,10.6424313Q3.1972072000000002,10.3249111,3.3441495999999997,10.0142288Q3.491092,9.7035446,3.653102,9.400445900000001Q3.8151119,9.0973463,3.9917990999999997,8.8025608Q4.1684861,8.5077763,4.3594251,8.2220163Q4.5503637999999995,7.9362564,4.7550943,7.6602097Q4.9598246,7.3841629,5.177853600000001,7.118494Q5.3958821,6.8528252,5.6266842,6.5981741Q5.8574858,6.343524,6.1005049,6.1005049Q6.343524,5.8574858,6.5981741,5.626684Q6.8528252,5.3958821,7.118494,5.177853600000001Q7.3841629,4.9598248,7.6602097,4.7550945Q7.9362564,4.550364,8.2220163,4.3594253Q8.5077763,4.1684864,8.8025613,3.9917994Q9.0973458,3.8151121,9.4004455,3.6531022Q9.7035446,3.4910921,10.0142279,3.3441497Q10.3249111,3.1972072000000002,10.6424313,3.0656863000000003Q10.9599514,2.93416548,11.2835417,2.81838298Q11.607132,2.70260042,11.9360142,2.60283518Q12.264896,2.50306994,12.598277,2.41956237Q12.931658,2.33605477,13.268735,2.26900601Q13.605812,2.20195724,13.945773,2.15152884Q14.285734,2.1011004,14.62776,2.067413814Q14.969786,2.033727217,15.313053,2.016863609Q15.65632,2,16,2Q16.34368,2,16.686948,2.016863609Q17.030214,2.033727217,17.372239999999998,2.067413814Q17.714266000000002,2.1011004,18.054226,2.1515288200000002Q18.394186,2.20195724,18.731262,2.26900601Q19.06834,2.33605477,19.401722,2.41956234Q19.735104,2.50306994,20.063986,2.60283518Q20.392868,2.70260042,20.716457,2.81838292Q21.040047,2.93416548,21.357567,3.0656863000000003Q21.675087,3.1972072000000002,21.985771,3.3441495999999997Q22.296455,3.491092,22.599554,3.653102Q22.902653,3.8151119,23.197437,3.9917990999999997Q23.492222,4.1684861,23.777981,4.3594251Q24.06374,4.5503637999999995,24.339787,4.7550943Q24.615835,4.9598246,24.881506,5.177853600000001Q25.147175,5.3958821,25.401825,5.6266842Q25.656475,5.8574858,25.899494,6.1005049Q26.142513,6.343524,26.373316,6.5981741Q26.604116,6.8528252,26.822145,7.118494Q27.040173,7.3841629,27.244902,7.6602097Q27.449633,7.9362564,27.640572,8.2220163Q27.831511,8.5077763,28.008198,8.8025613Q28.184887,9.0973458,28.346897,9.4004455Q28.508907,9.7035446,28.655849,10.0142279Q28.802792,10.3249111,28.934311,10.6424313Q29.065832,10.9599514,29.181616,11.2835417Q29.297398,11.607132,29.397165,11.9360142Q29.496929,12.264896,29.580437,12.598277Q29.663942,12.931658,29.730991,13.268735Q29.798038,13.605812,29.848469,13.945773Q29.898899,14.285734,29.932587,14.62776Q29.966272,14.969786,29.983135,15.313053Q30,15.65632,30,16ZM29,16Q29,15.680867,28.984341,15.36212Q28.968681,15.043371,28.937401,14.725777Q28.90612,14.408181,28.859293,14.092504Q28.812466,13.776825,28.750206,13.463825Q28.687946,13.150826,28.610403,12.841257Q28.53286,12.531689,28.440222,12.226299Q28.34758,11.9209089,28.24007,11.6204319Q28.132557,11.3199549,28.010429,11.025115Q27.888304,10.7302761,27.751858,10.4417839Q27.615412,10.1532917,27.464975,9.8718429Q27.314537,9.5903931,27.150469,9.3166647Q26.986403,9.042935400000001,26.809103,8.7775869Q26.631802,8.512238499999999,26.441696,8.255908999999999Q26.251591,7.9995799,26.049135,7.7528877Q25.84668,7.5061951,25.632362,7.2697334Q25.418047,7.0332727,25.192387,6.8076119Q24.966726,6.5819516,24.730267,6.3676357Q24.493805,6.1533198,24.247112,5.9508646Q24.00042,5.7484090000000005,23.744089,5.5583022Q23.487761,5.368195099999999,23.222412,5.190894800000001Q22.957062,5.013594599999999,22.683334,4.849527800000001Q22.409605,4.685461,22.128157,4.535023499999999Q21.846706,4.384585400000001,21.558214,4.2481389Q21.269722,4.1116924,20.974882,3.9895658000000003Q20.680042,3.8674393,20.379566,3.7599270000000002Q20.07909,3.6524147,19.773699,3.5597756Q19.468307,3.4671364000000002,19.158739,3.3895937Q18.849171,3.3120507999999997,18.536171,3.2497913Q18.223171,3.1875317,17.907494,3.1407053Q17.591816,3.0938790000000003,17.274221,3.0625986000000003Q16.956626,3.0313181,16.637878,3.0156590999999997Q16.319132,3,16,3Q15.680867,3,15.36212,3.0156590999999997Q15.043371,3.0313181,14.725777,3.0625986000000003Q14.408181,3.0938790000000003,14.092504,3.1407053Q13.776825,3.1875317,13.463825,3.2497913Q13.150826,3.3120507999999997,12.841257,3.3895937Q12.531689,3.4671364000000002,12.226299,3.5597756Q11.9209089,3.6524147,11.6204319,3.7599269Q11.3199549,3.8674393,11.025115,3.9895658000000003Q10.7302761,4.1116924,10.4417839,4.2481389Q10.1532917,4.384585400000001,9.8718429,4.5350231999999995Q9.5903931,4.685461,9.3166647,4.8495276Q9.042935400000001,5.0135942,8.7775869,5.1908946Q8.512238499999999,5.3681947999999995,8.255908999999999,5.5583016999999995Q7.9995799,5.748408599999999,7.7528877,5.9508641Q7.5061951,6.1533194,7.2697334,6.3676357Q7.0332727,6.5819511,6.8076119,6.8076115Q6.5819516,7.0332718,6.3676357,7.2697334Q6.1533198,7.5061946,5.9508646,7.7528872Q5.7484090000000005,7.9995794,5.5583022,8.2559085Q5.368195099999999,8.512237500000001,5.190894800000001,8.777586Q5.013594599999999,9.0429344,4.849527800000001,9.3166633Q4.685461,9.590392099999999,4.535023499999999,9.8718419Q4.384585400000001,10.1532907,4.2481389,10.441783Q4.1116924,10.7302742,3.9895658000000003,11.0251141Q3.8674393,11.3199539,3.7599270000000002,11.62043Q3.6524147,11.920908,3.5597756,12.226298Q3.4671364000000002,12.531689,3.3895936,12.841257Q3.3120507999999997,13.150826,3.2497911,13.463825Q3.1875317,13.776825,3.1407052,14.092503Q3.0938789,14.408181,3.0625985,14.725777Q3.0313181,15.043371,3.0156590000000003,15.36212Q3,15.680867,3,16Q3,16.319132,3.0156590999999997,16.637878Q3.0313181,16.956626,3.0625986000000003,17.274221Q3.0938790000000003,17.591816,3.1407053,17.907494Q3.1875317,18.223171,3.2497911,18.536173Q3.3120507999999997,18.849173,3.3895936,19.158741Q3.4671364000000002,19.468307,3.5597754999999998,19.773699Q3.6524146,20.07909,3.7599269,20.379566Q3.8674393,20.680042,3.9895657,20.974882Q4.1116924,21.269722,4.2481389,21.558214Q4.384585400000001,21.846706,4.5350231999999995,22.128155Q4.685461,22.409603,4.8495276,22.683332Q5.0135942,22.957062,5.1908946,23.222412Q5.3681947999999995,23.487761,5.5583016999999995,23.744091Q5.748408599999999,24.00042,5.9508641,24.247112Q6.1533194,24.493805,6.3676357,24.730265Q6.5819511,24.966726,6.8076115,25.192387Q7.0332718,25.418047,7.2697334,25.632364Q7.5061946,25.84668,7.7528872,26.049135Q7.9995794,26.251591,8.2559085,26.441696Q8.512237500000001,26.631802,8.777586,26.809103Q9.0429344,26.986403,9.3166633,27.150471Q9.590392099999999,27.314537,9.8718419,27.464977Q10.1532907,27.615414,10.441783,27.75186Q10.7302742,27.888306,11.0251141,28.010431Q11.3199539,28.132557,11.62043,28.24007Q11.920908,28.347582,12.226298,28.440222Q12.531689,28.53286,12.841257,28.610405Q13.150826,28.687946,13.463825,28.750206Q13.776825,28.812466,14.092503,28.859293Q14.408181,28.90612,14.725777,28.937401Q15.043371,28.968681,15.36212,28.984341Q15.680867,29,16,29Q16.319132,29,16.637878,28.984341Q16.956626,28.968681,17.274221,28.937401Q17.591816,28.90612,17.907494,28.859293Q18.223171,28.812466,18.536173,28.750206Q18.849173,28.687946,19.158741,28.610403Q19.468307,28.53286,19.773699,28.440222Q20.07909,28.34758,20.379566,28.24007Q20.680042,28.132557,20.974882,28.010429Q21.269722,27.888304,21.558214,27.751858Q21.846706,27.615412,22.128155,27.464975Q22.409603,27.314537,22.683332,27.150469Q22.957062,26.986403,23.222412,26.809103Q23.487761,26.631802,23.744091,26.441696Q24.00042,26.251591,24.247112,26.049135Q24.493805,25.84668,24.730265,25.632362Q24.966726,25.418047,25.192387,25.192387Q25.418047,24.966726,25.632364,24.730267Q25.84668,24.493805,26.049135,24.247112Q26.251591,24.00042,26.441696,23.744089Q26.631802,23.487761,26.809103,23.222412Q26.986403,22.957062,27.150471,22.683334Q27.314537,22.409605,27.464977,22.128157Q27.615414,21.846706,27.75186,21.558214Q27.888306,21.269722,28.010431,20.974882Q28.132557,20.680042,28.24007,20.379566Q28.347582,20.07909,28.440222,19.773699Q28.53286,19.468307,28.610405,19.158739Q28.687946,18.849171,28.750206,18.536171Q28.812466,18.223171,28.859293,17.907494Q28.90612,17.591816,28.937401,17.274221Q28.968681,16.956626,28.984341,16.637878Q29,16.319132,29,16Z" fill="#FFFFFF" fill-opacity="0.11999999731779099"/></g><g clip-path="url(#master_svg1_4_0421/4_70)"><g><path d="M10.64644662,11.35355338Q10.57612047,11.28322726,10.538060250000001,11.19134173Q10.5,11.099456184,10.5,11Q10.50000003,10.9507543,10.5096074,10.902454846Q10.51921478,10.85415539,10.53806031,10.8086583Q10.55690581,10.76316121,10.58426523,10.72221494Q10.61162469,10.68126863,10.64644665,10.64644665Q10.68126863,10.61162469,10.72221491,10.58426526Q10.76316121,10.55690581,10.8086583,10.53806028Q10.85415539,10.51921475,10.902454846,10.5096074Q10.9507543,10.50000003,11,10.5Q11.099456184,10.5,11.19134173,10.53806022Q11.28322726,10.57612047,11.35355338,10.64644662L21.353554000000003,20.6464462Q21.42388,20.7167721,21.46194,20.8086576Q21.5,20.9005432,21.5,21Q21.5,21.049246,21.490392999999997,21.097545Q21.480784999999997,21.145844,21.461939,21.19134Q21.443092999999998,21.236837,21.415734,21.277784Q21.388374,21.318731,21.353552999999998,21.353552999999998Q21.318731,21.388374,21.277784,21.415733Q21.236837,21.443092999999998,21.19134,21.461939Q21.145844,21.480784999999997,21.097544,21.490392999999997Q21.049246,21.5,21,21.5Q20.9005432,21.5,20.8086576,21.461941Q20.7167721,21.42388,20.6464462,21.353554000000003L10.64644659,11.35355341L10.64644662,11.35355338Z" fill-rule="evenodd" fill="#FFFFFF" fill-opacity="1"/></g><g><path d="M21.353554000000003,11.35355321Q21.42388,11.28322709,21.461939,11.19134159Q21.5,11.099456117,21.5,11Q21.5,10.9507543,21.490392999999997,10.902454846Q21.480784999999997,10.85415539,21.461939,10.8086583Q21.443092999999998,10.76316121,21.415734,10.72221494Q21.388374,10.68126863,21.353552999999998,10.64644665Q21.318731,10.61162469,21.277784,10.58426526Q21.236837,10.55690581,21.19134,10.53806028Q21.145844,10.51921475,21.097544,10.5096074Q21.049246,10.50000003,21,10.5Q20.9005432,10.5,20.8086576,10.53806031Q20.7167721,10.57612059,20.6464462,10.64644679L10.64644659,20.6464462Q10.57612047,20.7167721,10.538060250000001,20.8086576Q10.5,20.9005432,10.5,21Q10.50000003,21.049246,10.5096074,21.097545Q10.51921478,21.145844,10.53806031,21.19134Q10.55690581,21.236837,10.58426523,21.277784Q10.61162469,21.318731,10.64644665,21.353552999999998Q10.68126863,21.388374,10.72221491,21.415733Q10.76316121,21.443092999999998,10.8086583,21.461939Q10.85415539,21.480784999999997,10.902454846,21.490392999999997Q10.9507543,21.5,11,21.5Q11.099456117,21.5,11.19134159,21.461939Q11.28322709,21.42388,11.35355321,21.353554000000003L21.353554000000003,11.35355341L21.353554000000003,11.35355321Z" fill-rule="evenodd" fill="#FFFFFF" fill-opacity="1"/></g></g></g></g></svg>