<svg xmlns="http://www.w3.org/2000/svg" xmlns:xlink="http://www.w3.org/1999/xlink" fill="none" version="1.1" width="20" height="20" viewBox="0 0 20 20"><defs><clipPath id="master_svg0_21_166"><rect x="0" y="0" width="20" height="20" rx="0"/></clipPath></defs><g clip-path="url(#master_svg0_21_166)"><g><path d="M2.5,9.5L17.499983999999998,9.5Q17.549229,9.50000003,17.597528,9.5096074Q17.645826,9.51921478,17.691323,9.53806031Q17.73682,9.55690581,17.777766,9.58426523Q17.818713000000002,9.61162469,17.853536,9.64644665Q17.888357,9.68126863,17.915716,9.72221491Q17.943075,9.76316121,17.961922,9.8086583Q17.980767999999998,9.85415539,17.990375999999998,9.902454846Q17.999983,9.9507543,17.999983999999998,10Q17.999983,10.0492457,17.990375999999998,10.097545154Q17.980767999999998,10.14584461,17.961922,10.1913417Q17.943077000000002,10.23683879,17.915718,10.27778506Q17.888358,10.31873137,17.853537,10.35355335Q17.818714,10.38837531,17.777767,10.41573474Q17.73682,10.44309419,17.691324,10.46193972Q17.645826,10.48078525,17.597528,10.4903926Q17.549229,10.49999997,17.499983999999998,10.5L2.5,10.5Q2.4507543,10.49999997,2.402454846,10.4903926Q2.35415539,10.48078522,2.3086583,10.46193969Q2.26316121,10.44309419,2.22221494,10.41573477Q2.18126863,10.38837531,2.14644665,10.35355335Q2.11162469,10.31873137,2.08426526,10.27778509Q2.05690581,10.23683879,2.03806028,10.1913417Q2.01921475,10.14584461,2.0096074,10.097545154Q2.00000003,10.0492457,2,10Q2.00000003,9.9507543,2.0096074,9.902454846Q2.01921478,9.85415539,2.03806031,9.8086583Q2.05690581,9.76316121,2.08426523,9.72221494Q2.11162469,9.68126863,2.14644665,9.64644665Q2.18126863,9.61162469,2.22221491,9.58426526Q2.26316121,9.55690581,2.3086583,9.53806028Q2.35415539,9.51921475,2.402454846,9.5096074Q2.4507543,9.50000003,2.5,9.5Z" fill-rule="evenodd" fill="#CB9964" fill-opacity="1"/></g><g><path d="M12.14644662,5.35355338Q12.07612047,5.28322726,12.038060250000001,5.1913417299999995Q12,5.099456184,12,5Q12.00000003,4.9507543,12.0096074,4.902454846Q12.01921478,4.85415539,12.03806031,4.8086583Q12.05690581,4.76316121,12.08426523,4.72221494Q12.11162469,4.68126863,12.14644665,4.64644665Q12.18126863,4.61162469,12.22221491,4.5842652600000005Q12.26316121,4.55690581,12.3086583,4.53806028Q12.35415539,4.51921475,12.402454846,4.5096074Q12.4507543,4.50000003,12.5,4.5Q12.599456184,4.5,12.69134173,4.53806022Q12.78322726,4.57612047,12.85355338,4.64644662L18.2071066,10L12.85355341,15.353554Q12.78322718,15.42388,12.69134164,15.461939Q12.599456117,15.5,12.5,15.5Q12.4507543,15.5,12.402454846,15.490393Q12.35415539,15.480785,12.3086583,15.461939Q12.26316121,15.443093,12.22221494,15.415734Q12.18126863,15.388374,12.14644665,15.353553Q12.11162469,15.318731,12.08426526,15.277784Q12.05690581,15.236837,12.03806028,15.19134Q12.01921475,15.145844,12.0096074,15.097544Q12.00000003,15.049246,12,15Q12,14.9005432,12.03806031,14.8086576Q12.07612059,14.7167721,12.14644679,14.6464462L16.7928934,10L12.14644659,5.35355341L12.14644662,5.35355338Z" fill-rule="evenodd" fill="#CB9964" fill-opacity="1"/></g></g></svg>