<svg xmlns="http://www.w3.org/2000/svg" xmlns:xlink="http://www.w3.org/1999/xlink" fill="none" version="1.1" width="32" height="32" viewBox="0 0 32 32"><defs><clipPath id="master_svg0_4_4953"><rect x="0" y="0" width="32" height="32" rx="0"/></clipPath></defs><g clip-path="url(#master_svg0_4_4953)"><g><path d="M1.9166667461395264,4.583333492279053L1.9166667461395264,11.999999992279053Q1.9166667461395264,12.073868292279052,1.9310778361395262,12.146317492279053Q1.9454888661395264,12.218766692279052,1.9737571461395262,12.287012092279053Q2.0020254261395265,12.355257492279053,2.0430645961395264,12.416677492279053Q2.0841037661395263,12.478096492279054,2.1363366861395265,12.530329692279054Q2.1885696661395264,12.582562492279052,2.249989126139526,12.623601392279053Q2.3114085761395264,12.664640892279053,2.379654226139526,12.692908792279052Q2.4478998661395264,12.721177592279052,2.5203490261395265,12.735588592279052Q2.5927982031395262,12.749999492279052,2.6666667461395264,12.749999992279053Q2.7405352891395265,12.749999492279052,2.8129844661395262,12.735588592279052Q2.8854336261395264,12.721177592279052,2.9536792661395266,12.692908792279052Q3.0219249161395263,12.664640892279053,3.0833443661395266,12.623601892279053Q3.1447638261395263,12.582562892279054,3.196996806139526,12.530330192279052Q3.2492297261395264,12.478096992279053,3.2902688961395263,12.416676992279053Q3.3313080661395262,12.355257492279053,3.3595763461395265,12.287011592279054Q3.3878446261395263,12.218766192279052,3.4022556561395265,12.146317492279053Q3.4166667461395264,12.073868292279052,3.4166667461395264,11.999999992279053L3.4166667461395264,6.083333492279053L28.583336746139526,6.083333492279053L28.583336746139526,11.999999992279053Q28.583334746139528,12.073868292279052,28.597744746139526,12.146317492279053Q28.612154746139527,12.218766692279052,28.640423746139525,12.287012092279053Q28.668690746139525,12.355257492279053,28.709730746139527,12.416677492279053Q28.750769746139525,12.478096492279054,28.803003746139527,12.530329692279054Q28.855234746139526,12.582562492279052,28.916655746139526,12.623601392279053Q28.978073746139525,12.664640892279053,29.046318746139526,12.692908792279052Q29.114565746139526,12.721177592279052,29.187014746139525,12.735588592279052Q29.259462746139526,12.749999492279052,29.333334746139528,12.749999992279053Q29.407202746139525,12.749999492279052,29.479649746139525,12.735588592279052Q29.552097746139527,12.721177592279052,29.620342746139528,12.692908792279052Q29.688587746139525,12.664640892279053,29.750008746139525,12.623601892279053Q29.811426746139528,12.582562892279054,29.863661746139528,12.530330192279052Q29.915894746139525,12.478096992279053,29.956932746139525,12.416676992279053Q29.997971746139527,12.355257492279053,30.026239746139527,12.287011592279054Q30.054506746139527,12.218766192279052,30.068920746139526,12.146317492279053Q30.083332746139526,12.073868292279052,30.083334746139528,11.999999992279053L30.083336746139526,4.583333492279053L1.9166667461395264,4.583333492279053Z" fill-rule="evenodd" fill="#CB9964" fill-opacity="1"/></g><g><path d="M1.9166667461395264,27.416666L1.9166667461395264,11.25L30.083334746139528,11.25L30.083334746139528,27.416666L1.9166667461395264,27.416666ZM28.583334746139528,12.75L3.4166667461395264,12.75L3.4166667461395264,25.916666L28.583334746139528,25.916666L28.583334746139528,12.75Z" fill-rule="evenodd" fill="#CB9964" fill-opacity="1"/></g><g><path d="M8,18.58333396911621Q7.926131457,18.58333396911621,7.85368228,18.59774505911621Q7.78123312,18.612156089116212,7.71298748,18.64042436911621Q7.64474183,18.66869264911621,7.58332238,18.70973181911621Q7.52190292,18.750770989116212,7.46966994,18.80300390911621Q7.41743702,18.85523688911621,7.37639785,18.91665634911621Q7.33535868,18.978075799116212,7.3070904,19.04632144911621Q7.27882212,19.11456708911621,7.26441109,19.187016249116212Q7.25,19.25946542611621,7.25,19.33333396911621Q7.25,19.40720251211621,7.26441109,19.47965168911621Q7.27882212,19.55210084911621,7.3070904,19.620346489116212Q7.33535868,19.68859213911621,7.37639785,19.750011589116212Q7.41743702,19.811431049116212,7.46966994,19.86366402911621Q7.52190292,19.91589694911621,7.58332238,19.95693611911621Q7.64474183,19.997975289116212,7.71298748,20.02624356911621Q7.78123312,20.05451184911621,7.85368228,20.06892287911621Q7.926131457,20.08333396911621,8,20.08333396911621L9.333333,20.08333396911621Q9.4072015,20.08333396911621,9.4796507,20.06892287911621Q9.5520999,20.05451184911621,9.620345499999999,20.02624356911621Q9.688591,19.997975289116212,9.7500105,19.95693611911621Q9.81143,19.91589694911621,9.863663,19.86366402911621Q9.9158959,19.811431049116212,9.9569352,19.750011589116212Q9.9979743,19.68859213911621,10.0262425,19.620346489116212Q10.0545108,19.55210084911621,10.0689218,19.47965168911621Q10.083333,19.40720251211621,10.083333,19.33333396911621Q10.083333,19.25946542611621,10.068922,19.187016249116212Q10.0545108,19.11456708911621,10.0262425,19.04632144911621Q9.9979743,18.978075799116212,9.9569352,18.91665634911621Q9.9158959,18.85523688911621,9.863663,18.80300390911621Q9.81143,18.750770989116212,9.7500105,18.70973181911621Q9.688591,18.66869264911621,9.620345499999999,18.64042436911621Q9.5520999,18.612156089116212,9.4796507,18.59774505911621Q9.4072015,18.58333396911621,9.333333,18.58333396911621L8,18.58333396911621Z" fill-rule="evenodd" fill="#CB9964" fill-opacity="1"/></g><g><path d="M13.333333015441895,18.58333396911621Q13.259464472441895,18.58333396911621,13.187015295441894,18.59774505911621Q13.114566135441894,18.612156089116212,13.046320495441895,18.64042436911621Q12.978074845441894,18.66869264911621,12.916655395441895,18.70973181911621Q12.855235935441895,18.750770989116212,12.803002955441894,18.80300390911621Q12.750770035441894,18.85523688911621,12.709730865441895,18.91665634911621Q12.668691695441895,18.978075799116212,12.640423415441894,19.04632144911621Q12.612155135441894,19.11456708911621,12.597744105441894,19.187016249116212Q12.583333015441895,19.25946542611621,12.583333015441895,19.33333396911621Q12.583333015441895,19.40720251211621,12.597744105441894,19.47965168911621Q12.612155135441894,19.55210084911621,12.640423415441894,19.620346489116212Q12.668691695441895,19.68859213911621,12.709730865441895,19.750011589116212Q12.750770035441894,19.811431049116212,12.803002955441894,19.86366402911621Q12.855235935441895,19.91589694911621,12.916655395441895,19.95693611911621Q12.978074845441894,19.997975289116212,13.046320495441895,20.02624356911621Q13.114566135441894,20.05451184911621,13.187015295441894,20.06892287911621Q13.259464472441895,20.08333396911621,13.333333015441895,20.08333396911621L14.666666015441894,20.08333396911621Q14.740534515441894,20.08333396911621,14.812983715441895,20.06892287911621Q14.885432915441895,20.05451184911621,14.953678515441894,20.02624356911621Q15.021924015441895,19.997975289116212,15.083343515441895,19.95693611911621Q15.144763015441894,19.91589694911621,15.196996015441895,19.86366402911621Q15.249228915441895,19.811431049116212,15.290268215441895,19.750011589116212Q15.331307315441894,19.68859213911621,15.359575515441895,19.620346489116212Q15.387843815441894,19.55210084911621,15.402254815441895,19.47965168911621Q15.416666015441894,19.40720251211621,15.416666015441894,19.33333396911621Q15.416666015441894,19.25946542611621,15.402255015441895,19.187016249116212Q15.387843815441894,19.11456708911621,15.359575515441895,19.04632144911621Q15.331307315441894,18.978075799116212,15.290268215441895,18.91665634911621Q15.249228915441895,18.85523688911621,15.196996015441895,18.80300390911621Q15.144763015441894,18.750770989116212,15.083343515441895,18.70973181911621Q15.021924015441895,18.66869264911621,14.953678515441894,18.64042436911621Q14.885432915441895,18.612156089116212,14.812983715441895,18.59774505911621Q14.740534515441894,18.58333396911621,14.666666015441894,18.58333396911621L13.333333015441895,18.58333396911621Z" fill-rule="evenodd" fill="#CB9964" fill-opacity="1"/></g><g><path d="M18.66666603088379,18.58333396911621Q18.59279748788379,18.58333396911621,18.52034831088379,18.59774505911621Q18.44789915088379,18.612156089116212,18.379653510883788,18.64042436911621Q18.31140786088379,18.66869264911621,18.249988410883788,18.70973181911621Q18.188568950883788,18.750770989116212,18.13633597088379,18.80300390911621Q18.08410305088379,18.85523688911621,18.04306388088379,18.91665634911621Q18.002024710883788,18.978075799116212,17.97375643088379,19.04632144911621Q17.94548815088379,19.11456708911621,17.93107712088379,19.187016249116212Q17.91666603088379,19.25946542611621,17.91666603088379,19.33333396911621Q17.91666603088379,19.40720251211621,17.93107712088379,19.47965168911621Q17.94548815088379,19.55210084911621,17.97375643088379,19.620346489116212Q18.002024710883788,19.68859213911621,18.04306388088379,19.750011589116212Q18.08410305088379,19.811431049116212,18.13633597088379,19.86366402911621Q18.188568950883788,19.91589694911621,18.249988410883788,19.95693611911621Q18.31140786088379,19.997975289116212,18.379653510883788,20.02624356911621Q18.44789915088379,20.05451184911621,18.52034831088379,20.06892287911621Q18.59279748788379,20.08333396911621,18.66666603088379,20.08333396911621L19.99999903088379,20.08333396911621Q20.07386753088379,20.08333396911621,20.14631673088379,20.06892287911621Q20.21876593088379,20.05451184911621,20.287011530883788,20.02624356911621Q20.355257030883788,19.997975289116212,20.416676530883787,19.95693611911621Q20.47809603088379,19.91589694911621,20.530329030883788,19.86366402911621Q20.582561930883788,19.811431049116212,20.62360123088379,19.750011589116212Q20.66464033088379,19.68859213911621,20.692908530883788,19.620346489116212Q20.72117683088379,19.55210084911621,20.735587830883787,19.47965168911621Q20.74999903088379,19.40720251211621,20.74999903088379,19.33333396911621Q20.74999903088379,19.25946542611621,20.73558803088379,19.187016249116212Q20.72117683088379,19.11456708911621,20.692908530883788,19.04632144911621Q20.66464033088379,18.978075799116212,20.62360123088379,18.91665634911621Q20.582561930883788,18.85523688911621,20.530329030883788,18.80300390911621Q20.47809603088379,18.750770989116212,20.416676530883787,18.70973181911621Q20.355257030883788,18.66869264911621,20.287011530883788,18.64042436911621Q20.21876593088379,18.612156089116212,20.14631673088379,18.59774505911621Q20.07386753088379,18.58333396911621,19.99999903088379,18.58333396911621L18.66666603088379,18.58333396911621Z" fill-rule="evenodd" fill="#CB9964" fill-opacity="1"/></g></g></svg>