<svg xmlns="http://www.w3.org/2000/svg" xmlns:xlink="http://www.w3.org/1999/xlink" fill="none" version="1.1" width="32" height="32" viewBox="0 0 32 32"><defs><clipPath id="master_svg0_4_4941"><rect x="0" y="0" width="32" height="32" rx="0"/></clipPath></defs><g clip-path="url(#master_svg0_4_4941)"><g><path d="M6.938500646139526,13.365670744558106Q7.0441362461395265,13.324590324558105,7.132915246139526,13.254129294558105Q7.221694746139526,13.183668254558105,7.285688146139527,13.090119714558105Q7.349681646139526,12.996571184558105,7.383174646139526,12.888290284558105Q7.416666746139526,12.780009374558105,7.416666746139526,12.666666984558105Q7.416666746139526,12.592798441558106,7.402255746139526,12.520349264558105Q7.387844346139526,12.447900104558105,7.359575946139526,12.379654464558106Q7.331307646139527,12.311408814558105,7.290268646139526,12.249989364558106Q7.249229146139526,12.188569904558106,7.196996446139527,12.136336924558105Q7.144763746139526,12.084104004558105,7.083343746139526,12.043064834558106Q7.021924746139526,12.002025664558106,6.9536788461395265,11.973757384558105Q6.885433446139526,11.945489104558105,6.812984246139527,11.931078074558105Q6.740535546139526,11.916666984558105,6.666666746139526,11.916666984558105Q6.525965946139527,11.916666984558105,6.394831846139526,11.967663524558105Q2.5481749361395263,13.463583824558105,1.9222268461395262,18.575510484558105Q1.9166667461395264,18.620918784558107,1.9166667461395264,18.666665984558104Q1.9166667461395264,18.740533784558107,1.9310778361395262,18.812983084558105Q1.9454888661395264,18.885432284558107,1.9737571461395262,18.953677684558105Q2.0020254261395265,19.021923084558104,2.0430645961395264,19.083342584558103Q2.0841037661395263,19.144762484558107,2.1363366861395265,19.196995784558105Q2.1885696661395264,19.249228484558106,2.249989126139526,19.290267484558107Q2.3114085761395264,19.331306484558105,2.379654226139526,19.359575284558105Q2.4478998661395264,19.387843084558106,2.5203490261395265,19.402254084558106Q2.5927982031395262,19.416665584558103,2.6666667461395264,19.416665984558104Q2.7347727941395266,19.416665984558104,2.8017648161395265,19.404397984558106Q2.8687568261395264,19.392129884558106,2.9324432061395265,19.367995784558104Q2.996129576139526,19.343861084558107,3.0544267861395262,19.308649584558104Q3.1127240061395263,19.273437484558105,3.1637249561395264,19.228300584558106Q3.2147258561395264,19.183163684558107,3.2567620261395263,19.129578084558105Q3.2987982061395265,19.075992584558104,3.3304944061395263,19.015711784558107Q3.3621905461395265,18.955430984558106,3.3825097661395263,18.890426684558104Q3.4028290461395265,18.825422284558105,3.4111066461395265,18.757821084558106Q3.9279400461395264,14.537000784558106,6.937664746139526,13.365995224558105L6.938500646139526,13.365670144558106L6.938500646139526,13.365670744558106Z" fill-rule="evenodd" fill="#CB9964" fill-opacity="1"/></g><g><path d="M25.60568525911621,11.967864394558106Q29.45189666911621,13.463928584558106,30.07777456911621,18.575514784558106Q30.08333396911621,18.620920684558104,30.08333396911621,18.666665984558104Q30.08333396911621,18.740533784558107,30.068922969116212,18.812983084558105Q30.05451156911621,18.885432284558107,30.02624316911621,18.953677684558105Q29.997974869116213,19.021923084558104,29.95693586911621,19.083342584558103Q29.91589636911621,19.144762484558107,29.86366366911621,19.196995784558105Q29.81143096911621,19.249228484558106,29.75001096911621,19.290267484558107Q29.68859196911621,19.331306484558105,29.62034606911621,19.359575284558105Q29.55210066911621,19.387843084558106,29.479651469116213,19.402254084558106Q29.40720276911621,19.416665584558103,29.33333396911621,19.416665984558104Q29.265227769116212,19.416665984558104,29.198235469116213,19.404398484558104Q29.13124326911621,19.392129884558106,29.06755666911621,19.367994784558107Q29.00387046911621,19.343860584558104,28.945572869116212,19.308649084558105Q28.88727566911621,19.273436984558106,28.83627436911621,19.228299584558105Q28.78527356911621,19.183162684558106,28.74323746911621,19.129576684558106Q28.70120146911621,19.075990684558107,28.66950516911621,19.015709384558107Q28.63780926911621,18.955429084558105,28.61749026911621,18.890424684558106Q28.59717126911621,18.825419884558105,28.58889366911621,18.757818184558104L28.58887366911621,18.757654184558106Q28.07196306911621,14.536457284558105,25.061593059116213,13.365706984558106L25.06150132911621,13.365671274558105Q24.955865349116213,13.324590984558105,24.86708592911621,13.254129944558105Q24.77830648911621,13.183668914558105,24.71431278911621,13.090120254558105Q24.65031897911621,12.996571664558106,24.61682647911621,12.888290584558105Q24.58333396911621,12.780009534558106,24.58333396911621,12.666666984558105Q24.58333396911621,12.592798441558106,24.59774505911621,12.520349264558105Q24.612156089116212,12.447900104558105,24.64042436911621,12.379654464558106Q24.66869264911621,12.311408814558105,24.70973181911621,12.249989364558106Q24.750770989116212,12.188569904558106,24.80300390911621,12.136336924558105Q24.85523688911621,12.084104004558105,24.91665634911621,12.043064834558106Q24.978075799116212,12.002025664558106,25.04632144911621,11.973757384558105Q25.11456708911621,11.945489104558105,25.187016249116212,11.931078074558105Q25.25946542611621,11.916666984558105,25.33333396911621,11.916666984558105Q25.47403367911621,11.916666984558105,25.60516660911621,11.967662694558106L25.60568525911621,11.967864394558106Z" fill-rule="evenodd" fill="#CB9964" fill-opacity="1"/></g><g><path d="M12.17713924,11.937886004558106Q15.838871000000001,12.827915664558105,16.7346172,17.182211884558107Q16.75,17.256989984558103,16.75,17.333333984558106Q16.75,17.407202284558107,16.735589,17.479651484558104Q16.7211776,17.552100184558107,16.6929092,17.620346084558104Q16.664640900000002,17.688591484558106,16.6236019,17.750010984558106Q16.5825624,17.811430484558105,16.5303297,17.863663684558105Q16.478096999999998,17.915896384558106,16.416677,17.956935884558106Q16.355258,17.997974884558104,16.2870121,18.026243184558105Q16.2187667,18.054511584558107,16.146317500000002,18.068922484558104Q16.0738688,18.083333984558106,16,18.083333984558106Q15.9357226,18.083333984558106,15.8723824,18.072397184558106Q15.809042,18.061459584558104,15.7484865,18.039903684558105Q15.6879311,18.018348184558107,15.6319265,17.986803084558105Q15.5759223,17.955258384558107,15.5261021,17.914643284558107Q15.4762821,17.874029184558104,15.4340992,17.825529084558106Q15.3919163,17.777029984558105,15.3586011,17.722059284558107Q15.3252864,17.667089484558105,15.3018107,17.607252584558104Q15.2783349,17.547415684558104,15.265383,17.484456084558104Q14.5611289,14.061017784558105,11.82286076,13.395447964558105Q11.76203279,13.380662914558105,11.70449746,13.355998694558105Q11.64696214,13.331334474558105,11.59431162,13.297473494558105Q11.54166114,13.263612504558106,11.49535245,13.221491934558106Q11.44904375,13.179371354558105,11.41035843,13.130156754558106Q11.37167311,13.080942094558106,11.3416816,13.025995284558105Q11.31169009,12.971048504558105,11.29122245,12.911890114558105Q11.27075481,12.852731744558106,11.26037741,12.790998874558106Q11.25,12.729266010558106,11.25,12.666666984558105Q11.25,12.592798441558106,11.26441109,12.520349264558105Q11.27882212,12.447900104558105,11.3070904,12.379654464558106Q11.33535868,12.311408814558105,11.37639785,12.249989364558106Q11.41743702,12.188569904558106,11.46966994,12.136336924558105Q11.52190292,12.084104004558105,11.58332238,12.043064834558106Q11.64474183,12.002025664558106,11.71298748,11.973757384558105Q11.78123312,11.945489104558105,11.85368228,11.931078074558105Q11.926131457,11.916666984558105,12,11.916666984558105Q12.089840502,11.916666984558105,12.17713924,11.937886004558106Z" fill-rule="evenodd" fill="#CB9964" fill-opacity="1"/></g><g><path d="M20.1771393,13.395447914558105Q20.237967,13.380662914558105,20.2955022,13.355998634558105Q20.3530378,13.331334414558105,20.4056883,13.297473494558105Q20.4583387,13.263612504558106,20.504647300000002,13.221491934558106Q20.5509562,13.179371354558105,20.5896416,13.130156754558106Q20.6283269,13.080942094558106,20.6583185,13.025995284558105Q20.688309699999998,12.971048504558105,20.7087774,12.911890114558105Q20.7292452,12.852731744558106,20.7396226,12.790998874558106Q20.75,12.729266010558106,20.75,12.666666984558105Q20.75,12.592798441558106,20.735589,12.520349264558105Q20.7211776,12.447900104558105,20.6929092,12.379654464558106Q20.664640900000002,12.311408814558105,20.6236019,12.249989364558106Q20.5825624,12.188569904558106,20.5303297,12.136336924558105Q20.478096999999998,12.084104004558105,20.416677,12.043064834558106Q20.355258,12.002025664558106,20.2870121,11.973757384558105Q20.2187667,11.945489104558105,20.146317500000002,11.931078074558105Q20.0738688,11.916666984558105,20,11.916666984558105Q19.9101596,11.916666984558105,19.8228607,11.937886054558106Q16.16112822,12.827915194558106,15.26538295,17.182211884558107Q15.25,17.256989984558103,15.25,17.333333984558106Q15.25,17.407202284558107,15.26441109,17.479651484558104Q15.27882212,17.552100184558107,15.3070904,17.620346084558104Q15.33535868,17.688591484558106,15.37639785,17.750010984558106Q15.41743702,17.811430484558105,15.46966994,17.863663684558105Q15.52190292,17.915896384558106,15.58332238,17.956935884558106Q15.64474183,17.997974884558104,15.71298748,18.026243184558105Q15.78123312,18.054511584558107,15.85368228,18.068922484558104Q15.926131457,18.083333984558106,16,18.083333984558106Q16.06427753,18.083333984558106,16.12761769,18.072397184558106Q16.19095786,18.061459584558104,16.25151327,18.039903684558105Q16.3120687,18.018348184558107,16.36807323,17.986803084558105Q16.42407775,17.955258384558107,16.47389793,17.914643284558107Q16.52371812,17.874029184558104,16.56590092,17.825529084558106Q16.60808372,17.777029984558105,16.64139873,17.722059284558107Q16.67471385,17.667089484558105,16.69818962,17.607252584558104Q16.72166538,17.547415684558104,16.73461699,17.484456084558104Q17.4388705,14.061017284558105,20.1771393,13.395447914558105Z" fill-rule="evenodd" fill="#CB9964" fill-opacity="1"/></g><g><path d="M13.465176115441896,23.404986680883788Q13.529669715441894,23.39347005088379,13.591189815441894,23.37094581088379Q13.652709915441894,23.348421630883788,13.709392515441895,23.31557220088379Q13.766076115441894,23.28272277088379,13.816205015441895,23.240543190883788Q13.866333915441896,23.19836354088379,13.908390515441894,23.14813134088379Q13.950447115441895,23.09789917088379,13.983158115441896,23.041135940883787Q14.015868615441894,22.98437267088379,14.038242315441895,22.92279771088379Q14.060615515441896,22.86122277088379,14.071974715441893,22.79670127088379Q14.083333015441895,22.732179753883788,14.083333015441895,22.66666603088379Q14.083333015441895,22.59279748788379,14.068922015441895,22.52034831088379Q14.054510615441895,22.44789915088379,14.026242215441894,22.379653510883788Q13.997973915441895,22.31140786088379,13.956934915441895,22.249988410883788Q13.915895415441895,22.188568950883788,13.863662715441894,22.13633597088379Q13.811430015441895,22.08410305088379,13.750010015441894,22.04306388088379Q13.688591015441894,22.002024710883788,13.620345115441895,21.97375643088379Q13.552099715441894,21.94548815088379,13.479650515441895,21.93107712088379Q13.407201815441894,21.91666603088379,13.333333015441895,21.91666603088379Q13.266891015441894,21.91666603088379,13.201483915441894,21.92834645088379L13.201211915441895,21.928395030883788Q9.966956855441895,22.50609873088379,8.623873595441895,26.42342253088379Q8.583333015441895,26.54166603088379,8.583333015441895,26.66666603088379Q8.583333015441895,26.74053483088379,8.597744105441894,26.81298353088379Q8.612155135441894,26.88543273088379,8.640423415441894,26.953678130883787Q8.668691695441895,27.02192403088379,8.709730865441895,27.08334303088379Q8.750770035441894,27.144763030883787,8.803002955441894,27.19699573088379Q8.855235935441895,27.24922843088379,8.916655395441895,27.29026793088379Q8.978074845441894,27.33130693088379,9.046320495441895,27.359575230883788Q9.114566135441894,27.38784363088379,9.187015295441894,27.40225503088379Q9.259464472441895,27.41666603088379,9.333333015441895,27.41666603088379Q9.391598194441894,27.41666603088379,9.449164305441894,27.407667130883787Q9.506730405441894,27.398668730883788,9.562216075441894,27.38088703088379Q9.617701735441894,27.363106230883787,9.669775545441894,27.33696933088379Q9.721849325441895,27.310832030883788,9.769261655441895,27.27696613088379Q9.816673995441894,27.24310013088379,9.858287155441895,27.20231823088379Q9.899900315441894,27.161535730883788,9.934715685441894,27.11481623088379Q9.969531175441894,27.06809713088379,9.996713395441894,27.01656103088379Q10.023895685441895,26.96502493088379,10.042792495441894,26.90990923088379Q11.099652815441894,23.82740183088379,13.465176115441896,23.404986680883788Z" fill-rule="evenodd" fill="#CB9964" fill-opacity="1"/></g><g><path d="M18.79850896088379,21.92834532088379Q22.03274873088379,22.50588822088379,23.37592793088379,26.422847730883788L23.376125330883788,26.42342303088379Q23.41666603088379,26.54166603088379,23.41666603088379,26.66666603088379Q23.41666603088379,26.74053483088379,23.40225503088379,26.81298353088379Q23.38784363088379,26.88543273088379,23.359575230883788,26.953678130883787Q23.33130693088379,27.02192403088379,23.29026793088379,27.08334303088379Q23.24922843088379,27.144763030883787,23.19699573088379,27.19699573088379Q23.144763030883787,27.24922843088379,23.08334303088379,27.29026793088379Q23.02192403088379,27.33130693088379,22.953678130883787,27.359575230883788Q22.88543273088379,27.38784363088379,22.81298353088379,27.40225503088379Q22.74053483088379,27.41666603088379,22.66666603088379,27.41666603088379Q22.60840103088379,27.41666603088379,22.550834930883788,27.407667130883787Q22.493268730883788,27.398668730883788,22.43778273088379,27.38088703088379Q22.38229723088379,27.363106230883787,22.33022353088379,27.33696933088379Q22.27814963088379,27.310832030883788,22.23073723088379,27.27696613088379Q22.18332503088379,27.24310013088379,22.141711730883788,27.20231823088379Q22.10009863088379,27.161535730883788,22.06528303088379,27.11481623088379Q22.03046773088379,27.06809713088379,22.00328543088379,27.01656103088379Q21.976103330883788,26.96502493088379,21.957206530883788,26.90990923088379Q20.900347730883787,23.82740143088379,18.534823100883788,23.40498674088379Q18.47032958088379,23.39347005088379,18.40880960088379,23.37094581088379Q18.34728962088379,23.348421630883788,18.29060662088379,23.31557220088379Q18.23392358088379,23.282722830883788,18.18379447088379,23.240543190883788Q18.13366532088379,23.198363600883788,18.09160858088379,23.14813137088379Q18.049551720883787,23.097899200883788,18.01684117088379,23.041135940883787Q17.98413062088379,22.98437267088379,17.96175718088379,22.92279771088379Q17.93938363088379,22.86122277088379,17.92802483088379,22.79670125088379Q17.91666603088379,22.73217974588379,17.91666603088379,22.66666603088379Q17.91666603088379,22.59279748788379,17.93107712088379,22.52034831088379Q17.94548815088379,22.44789915088379,17.97375643088379,22.379653510883788Q18.002024710883788,22.31140786088379,18.04306388088379,22.249988410883788Q18.08410305088379,22.188568950883788,18.13633597088379,22.13633597088379Q18.188568950883788,22.08410305088379,18.249988410883788,22.04306388088379Q18.31140786088379,22.002024710883788,18.379653510883788,21.97375643088379Q18.44789915088379,21.94548815088379,18.52034831088379,21.93107712088379Q18.59279748788379,21.91666603088379,18.66666603088379,21.91666603088379Q18.73310479488379,21.91666603088379,18.79850896088379,21.92834532088379Z" fill-rule="evenodd" fill="#CB9964" fill-opacity="1"/></g><g><ellipse cx="16.00000023841858" cy="20.666667222976685" rx="3.3333332538604736" ry="3.3333332538604736" fill-opacity="0" stroke-opacity="1" stroke="#CB9964" fill="none" stroke-width="1.5" stroke-linecap="ROUND"/></g><g><ellipse cx="22.66666603088379" cy="9.333333492279053" rx="4" ry="4" fill-opacity="0" stroke-opacity="1" stroke="#CB9964" fill="none" stroke-width="1.5" stroke-linecap="ROUND"/></g><g><ellipse cx="9.333333492279053" cy="9.333333492279053" rx="4" ry="4" fill-opacity="0" stroke-opacity="1" stroke="#CB9964" fill="none" stroke-width="1.5" stroke-linecap="ROUND"/></g></g></svg>