<svg xmlns="http://www.w3.org/2000/svg" xmlns:xlink="http://www.w3.org/1999/xlink" fill="none" version="1.1" width="12" height="12" viewBox="0 0 12 12"><defs><clipPath id="master_svg0_238_498"><rect x="0" y="0" width="12" height="12" rx="0"/></clipPath></defs><g clip-path="url(#master_svg0_238_498)"><g><path d="M4.39644656,3.35355335Q4.32612047,3.28322721,4.28806025,3.19134167Q4.25000003,3.099456161,4.25,3Q4.25000003,2.9507543,4.2596074,2.902454846Q4.26921478,2.85415539,4.28806031,2.8086583Q4.30690581,2.76316121,4.33426523,2.72221494Q4.36162469,2.68126863,4.39644665,2.64644665Q4.43126863,2.61162469,4.47221491,2.58426526Q4.51316121,2.55690581,4.5586583,2.53806028Q4.60415539,2.51921475,4.652454846,2.5096074Q4.7007543,2.50000003,4.75,2.5Q4.849456199,2.5,4.94134176,2.53806022Q5.03322729,2.5761205,5.10355344,2.64644665L8.4571066,6L5.10367203,9.3534346L5.10355344,9.3535533Q5.03322732,9.4238796,4.94134176,9.4619398Q4.849456213,9.5,4.75,9.5Q4.7007543,9.5,4.652454846,9.4903917Q4.60415539,9.480784400000001,4.5586583,9.4619389Q4.51316121,9.443093300000001,4.47221494,9.4157338Q4.43126863,9.388374800000001,4.39644665,9.3535528Q4.36162469,9.3187308,4.3342652600000005,9.2777843Q4.30690581,9.236838299999999,4.28806028,9.191341399999999Q4.26921475,9.145844499999999,4.2596074,9.0975451Q4.25000003,9.0492458,4.25,9Q4.25000003,8.900543200000001,4.28806025,8.8086576Q4.32612044,8.716772599999999,4.39644653,8.6464467L4.39656529,8.646328L7.0428932,6L4.39644656,3.35355335Z" fill-rule="evenodd" fill="#CB9964" fill-opacity="1"/></g></g></svg>