<svg xmlns="http://www.w3.org/2000/svg" xmlns:xlink="http://www.w3.org/1999/xlink" fill="none" version="1.1" width="32" height="32" viewBox="0 0 32 32"><defs><clipPath id="master_svg0_4_00820"><rect x="0" y="0" width="32" height="32" rx="0"/></clipPath></defs><g clip-path="url(#master_svg0_4_00820)"><g><line x1="6.666666507720947" y1="10.583333015441895" x2="25.333332538604736" y2="10.583333015441895" fill-opacity="0" stroke-opacity="1" stroke="#CB9964" fill="none" stroke-width="1.5" stroke-linecap="ROUND"/></g><g><path d="M8.687239232556152,12.148436084558105L9.830106322556153,28.148436984558106L9.830108072556152,28.148466984558105Q9.888544712556152,28.966104984558104,10.488478082556153,29.524713984558105Q11.088423882556153,30.083334984558107,11.908133482556153,30.083334984558107L20.09186718255615,30.083334984558107Q20.91157718255615,30.083334984558107,21.511523182556154,29.524713984558105Q22.11145718255615,28.966104984558104,22.169895182556154,28.148436984558106L23.31276118255615,12.148440984558105Q23.377373182556152,11.243966464558106,22.759406182556152,10.580309338558106Q22.14145218255615,9.916666924558106,21.23466718255615,9.916666924558106L10.765333282556153,9.916666924558106Q9.858549532556152,9.916666984558105,9.240595832556153,10.580309435558105Q8.622629162556152,11.243965744558105,8.687239232556152,12.148436084558105ZM11.908133482556153,28.583334984558107Q11.365029482556153,28.583334984558107,11.326293982556152,28.041565984558105L11.326292282556153,28.041534984558105L10.183427272556152,12.041564584558106Q10.165338042556153,11.788334284558106,10.338371102556152,11.602507884558106Q10.511417582556152,11.416667044558105,10.765333282556153,11.416667044558105L21.23466718255615,11.416667044558105Q21.48858218255615,11.416667044558105,21.661629182556155,11.602507884558106Q21.83466218255615,11.788333784558105,21.81657318255615,12.041559584558104L20.67370718255615,28.041565984558105Q20.634987182556152,28.583334984558107,20.09186718255615,28.583334984558107L11.908133482556153,28.583334984558107Z" fill-rule="evenodd" fill="#CB9964" fill-opacity="1"/></g><g><path d="M17.333334,3.4166667461395264L19.333334,3.4166667461395264Q19.4072022,3.4166667461395264,19.4796512,3.4022556561395265Q19.5521004,3.3878446261395263,19.6203461,3.3595763461395265Q19.6885917,3.3313080661395262,19.750011399999998,3.2902688961395263Q19.8114309,3.2492297261395264,19.8636639,3.196996806139526Q19.9158969,3.1447638261395263,19.9569359,3.0833443661395266Q19.9979753,3.0219249161395263,20.026243700000002,2.9536792661395266Q20.054512,2.8854336261395264,20.068922999999998,2.8129844661395262Q20.083334,2.7405352891395265,20.083334,2.6666667461395264Q20.083334,2.5927982031395262,20.068922999999998,2.5203490261395265Q20.054512,2.4478998661395264,20.0262432,2.379654226139526Q19.9979749,2.3114085761395264,19.9569356,2.249989126139526Q19.9158967,2.1885696661395264,19.8636637,2.1363366861395265Q19.8114305,2.0841037661395263,19.750011,2.0430645961395264Q19.6885915,2.0020254261395265,19.6203458,1.9737571461395262Q19.552100199999998,1.9454888661395264,19.4796515,1.9310778361395262Q19.4072022,1.9166667461395264,19.333334,1.9166667461395264L17.333334,1.9166667461395264Q16.47037461,1.9166667461395264,15.86018407,2.526863386139526Q15.25,3.1370535161395265,15.24999988,4.000000046139526L15.25,6.666666546139526Q15.25,6.740534546139527,15.26441109,6.812983746139526Q15.27882212,6.8854329461395265,15.3070904,6.9536788461395265Q15.33535868,7.021924246139526,15.37639785,7.083343746139526Q15.41743702,7.144763246139527,15.46966994,7.196996446139527Q15.52190292,7.249229146139526,15.58332238,7.290268646139526Q15.64474183,7.331307646139527,15.71298748,7.359575946139526Q15.78123312,7.387844346139526,15.85368228,7.402255746139526Q15.926131457,7.416666746139526,16,7.416666746139526Q16.073868543,7.416666746139526,16.14631772,7.402255746139526Q16.21876688,7.387844346139526,16.28701252,7.359575946139526Q16.35525817,7.331307646139527,16.41667762,7.290268646139526Q16.47809708,7.249229146139526,16.53033006,7.196996446139527Q16.58256298,7.144763746139526,16.62360215,7.083343746139526Q16.66464132,7.021924746139526,16.6929096,6.9536788461395265Q16.72117788,6.885433446139526,16.73558891,6.812984246139527Q16.75,6.740535546139526,16.75,6.666666746139526L16.74999994,4.000000146139526Q16.74999994,3.7583696461395264,16.9208495,3.587518336139526Q17.0916994,3.4166667461395264,17.333334,3.4166667461395264Z" fill-rule="evenodd" fill="#CB9964" fill-opacity="1"/></g><g><path d="M9.074538495441894,7.6574951377209475L8.593538585441895,10.543362107720947L8.447980995441895,11.416667007720946L23.552017015441894,11.416667007720946L22.925467015441896,7.6575249477209475Q22.799918015441897,6.904079017720948,22.217092015441892,6.410362627720947Q21.634290015441895,5.916666567720947,20.870466015441895,5.916666567720947L11.129533615441895,5.916666567720947Q10.365711315441894,5.916666687720947,9.782909005441894,6.410362567720947Q9.200082375441895,6.904079167720948,9.074538495441894,7.6574951377209475ZM10.218684915441894,9.916667007720948L21.781314015441893,9.916667007720948L21.445868015441896,7.9040748077209475Q21.410717015441897,7.693130407720947,21.247541015441897,7.554903687720947Q21.084354015441896,7.416666447720948,20.870466015441895,7.416666447720948L11.129533915441895,7.416666447720948Q10.915645615441894,7.416666447720948,10.752458015441894,7.554903867720947Q10.589282515441894,7.693131007720947,10.554127315441894,7.904104607720948L10.218684915441894,9.916667007720948Z" fill-rule="evenodd" fill="#CB9964" fill-opacity="1"/></g></g></svg>