<svg xmlns="http://www.w3.org/2000/svg" xmlns:xlink="http://www.w3.org/1999/xlink" fill="none" version="1.1" width="32" height="32" viewBox="0 0 32 32"><defs><clipPath id="master_svg0_4_00835"><rect x="0" y="0" width="32" height="32" rx="0"/></clipPath></defs><g clip-path="url(#master_svg0_4_00835)"><g><path d="M26.662514,10.331256423535155Q25.333597,12.989086623535156,20.004901,22.980392623535156Q19.916666,23.145833623535157,19.916666,23.333333623535157Q19.916666,23.407203623535157,19.931075999999997,23.479650623535157Q19.945487999999997,23.552099623535156,19.973755,23.620344623535157Q20.002024,23.688590623535156,20.043063,23.750009623535156Q20.084103,23.811429623535155,20.136335000000003,23.863662623535156Q20.188568,23.915895623535157,20.249987,23.956933623535157Q20.311405,23.997974623535157,20.379651000000003,24.026241623535157Q20.447896999999998,24.054509623535157,20.520348,24.068921623535157Q20.592796999999997,24.083331623535155,20.666666,24.083333623535157Q20.768616,24.083333623535157,20.866867,24.056119623535157Q20.965117,24.028907623535158,21.052538,23.976453623535157Q21.139960000000002,23.924001623535155,21.210208,23.850116623535158Q21.280456,23.776231623535157,21.328431000000002,23.686275623535156Q26.666397,13.677590623535156,28.004154,11.002077123535157Q29.172245,8.665893123535156,28.102024,6.2578966235351565Q27.045862,3.881532623535156,24.307774,2.6493936775351563Q21.620019,1.4399028235351563,18.700585,2.1000823335351564Q15.8470001,2.745371583535156,14.0904989,4.853183723535157Q10.7315173,8.883974123535157,5.37596226,16.917308623535156Q5.25,17.106252623535156,5.25,17.333333623535154Q5.25,17.40720162353516,5.26441109,17.479650623535157Q5.27882212,17.552099623535156,5.3070904,17.620344623535157Q5.33535868,17.688589623535158,5.37639785,17.750009623535156Q5.41743702,17.811429623535155,5.46966994,17.863662623535156Q5.52190292,17.915895623535157,5.58332238,17.956934623535155Q5.64474183,17.997973623535156,5.71298748,18.026241623535157Q5.78123312,18.054509623535154,5.85368228,18.068921623535154Q5.926131457,18.083333623535154,6,18.083333623535154Q6.092603229,18.083333623535154,6.18242538,18.060809623535157Q6.27224752,18.038285623535156,6.35389343,17.994589623535155Q6.43553936,17.950894623535156,6.50410503,17.888651623535154Q6.5726707,17.826410623535157,6.62403774,17.749359623535156Q11.9351473,9.782693823535157,15.2428331,5.813457023535156Q16.673809,4.096276523535156,19.03143,3.563141163535156Q21.461759,3.0135643435351565,23.692226,4.017276123535156Q25.907841,5.014301823535156,26.731308,6.867104523535156Q27.514029,8.628225323535156,26.662514,10.331256423535155Z" fill-rule="evenodd" fill="#CB9964" fill-opacity="1"/></g><g><path d="M18.699739,16.741343115441893Q16.05206,14.583333015441895,12.333333,14.583333015441895Q8.5138407,14.583333015441895,5.9818295,16.542282915441895Q3.25,18.655827315441893,3.24999964,22.125467315441895Q3.25,25.542974015441892,6.3357875,27.793974015441897Q7.280526399999999,28.483166015441896,8.657886999999999,28.650934015441894Q9.435792,28.745687015441895,11.087153,28.689471015441896Q11.913699600000001,28.661335015441892,12.333334,28.661331015441895Q12.7935162,28.661331015441895,13.7011099,28.706538015441893Q15.199438,28.781167015441895,15.913925,28.707864015441892Q17.184004,28.577559015441892,18.078110000000002,27.971688015441895Q21.416666,25.709509015441895,21.416666,22.125467315441895Q21.416666,18.955794315441896,18.699739,16.741343115441893ZM6.8997035,17.728667215441895Q9.0263557,16.083333015441895,12.333333,16.083333015441895Q15.518201,16.083333015441895,17.752060999999998,17.904057515441895Q19.916666,19.668334915441896,19.916666,22.125467315441895Q19.916666,24.913980515441892,17.23669,26.729911015441893Q16.341943,27.336215015441894,13.7757311,27.208395015441894Q12.8308754,27.161332015441893,12.333334,27.161332015441893Q11.8881745,27.161334015441895,11.0361199,27.190339015441893Q9.501342300000001,27.242585015441897,8.8392525,27.161941015441894Q7.8492792,27.041357015441896,7.2198131,26.582159015441896Q4.74999982,24.780494715441897,4.74999958,22.125467315441895Q4.75,19.391835715441893,6.8997035,17.728667215441895Z" fill-rule="evenodd" fill="#CB9964" fill-opacity="1"/></g><g><path d="M14.890855815441896,20.018100481Q13.816516915441895,19.25,12.333333015441895,19.25Q10.820097115441895,19.25000006,9.790848765441895,19.948499445Q8.583333015441895,20.76798022,8.583333015441895,22.1448669Q8.583333015441895,22.832037,8.971189765441894,23.4390211Q9.320727409441895,23.986037,9.929101765441894,24.3753424Q10.361302815441894,24.6518936,10.963167215441894,24.7161956Q11.273276215441895,24.7493267,11.897978515441896,24.7306824Q12.188889515441895,24.7220001,12.333333515441895,24.7220001Q12.489356715441895,24.7220001,12.806424415441894,24.7358503Q13.375343315441896,24.7607017,13.662007315441894,24.734903799999998Q14.221197115441894,24.6845818,14.633224515441896,24.4397011Q15.284863015441895,24.0523529,15.662744515441894,23.4890041Q16.083333015441895,22.8619878,16.083333015441895,22.1448669Q16.083333015441895,20.87066501,14.890855815441896,20.018100481ZM10.633167615441895,21.1896678Q11.281024115441895,20.75,12.333333015441895,20.75Q13.335455415441896,20.75,14.018460315441896,21.2383159Q14.583333015441895,21.6421731,14.583333015441895,22.1448669Q14.583333015441895,22.7243624,13.866776015441895,23.1502993Q13.662330115441893,23.2718074,12.871884315441894,23.2372794Q12.522090915441895,23.2219999,12.333333515441895,23.2219999Q12.166516315441894,23.2219999,11.853230515441894,23.2313499Q10.965703115441894,23.2578385,10.737563215441895,23.1118593Q10.083333015441895,22.6932096,10.083333015441895,22.1448669Q10.083333015441895,21.562813,10.633167615441895,21.1896678Z" fill-rule="evenodd" fill="#CB9964" fill-opacity="1"/></g><g><path d="M10.205897195595703,12.721212888085937Q12.356394285595703,12.106819928085937,15.170634785595702,12.732207088085937Q15.251003785595703,12.750066788085938,15.333332985595703,12.750066788085938Q15.407201785595703,12.750066788085938,15.479650485595704,12.735655688085938Q15.552099685595703,12.721244688085937,15.620345085595703,12.692976388085938Q15.688590485595704,12.664708078085937,15.750009585595702,12.623668908085937Q15.811429485595703,12.582629738085938,15.863662685595703,12.530396818085938Q15.915895485595703,12.478163838085937,15.956934885595704,12.416744348085938Q15.997973885595703,12.355324868085937,16.026242285595703,12.287079218085937Q16.054511085595703,12.218833568085937,16.068922085595702,12.146384448085938Q16.083332985595703,12.073935268085938,16.083332985595703,12.000066758085937Q16.083332985595703,11.936534468085938,16.072645685595703,11.873907458085938Q16.061959285595705,11.811280458085937,16.040890185595703,11.751343526085938Q16.019820185595705,11.691406581085937,15.988969285595704,11.635867808085937Q15.958118485595703,11.580329031085938,15.918364485595703,11.530771198085937Q15.878610585595702,11.481213358085938,15.831086585595703,11.439048778085937Q15.783562685595703,11.396884198085937,15.729623785595702,11.363314508085937Q15.675684485595703,11.329744818085938,15.616867085595704,11.305726678085938Q15.558050185595704,11.281708538085937,15.496030785595703,11.267926458085938Q12.310564985595704,10.560044688085938,9.794298935595704,11.278788778085937L9.793837055595704,11.278920708085938Q9.735454355595703,11.295600478085937,9.680515105595703,11.321454588085938Q9.625575835595702,11.347308668085937,9.575511035595703,11.381663708085938Q9.525446235595703,11.416018758085938,9.481559875595703,11.457979918085938Q9.437673445595703,11.499941098085937,9.401108565595703,11.548415448085937Q9.364543675595703,11.596889809085937,9.336252625595703,11.650614787085937Q9.307961645595704,11.704339765085937,9.288681385595703,11.761916026085938Q9.269401195595703,11.819492278085937,9.259633835595704,11.879420188085938Q9.249866485595703,11.939348098085938,9.249866485595703,12.000066758085937Q9.249866485595703,12.073935268085938,9.264277575595703,12.146384478085938Q9.278688605595702,12.218833628085937,9.306956885595703,12.287079278085937Q9.335225165595704,12.355324928085938,9.376264335595703,12.416744348085938Q9.417303505595703,12.478163838085937,9.469536425595702,12.530396818085938Q9.521769405595704,12.582629738085938,9.583188865595703,12.623668908085937Q9.644608315595702,12.664708078085937,9.712853965595704,12.692976388085938Q9.781099605595703,12.721244688085937,9.853548765595702,12.735655788085937Q9.925997942595703,12.750066788085938,9.999866485595703,12.750066788085938Q10.104902285595703,12.750066788085938,10.205897195595703,12.721212888085937Z" fill-rule="evenodd" fill="#CB9964" fill-opacity="1"/></g><g><path d="M17.703300997509764,8.022143045776367L17.704404397509766,8.022615745776367Q17.845910597509764,8.083266745776367,17.999866497509764,8.083266745776367Q18.073735197509766,8.083266745776367,18.146183997509766,8.068855645776367Q18.218633197509767,8.054444545776366,18.286878597509766,8.026176245776368Q18.355124497509767,7.997907845776368,18.416543497509764,7.956868745776367Q18.477962997509763,7.915829645776367,18.530196197509767,7.863596645776367Q18.582428897509764,7.811363695776367,18.623468397509765,7.749944205776368Q18.664507397509766,7.688524845776367,18.692775697509767,7.620279255776367Q18.721044497509766,7.5520336057763675,18.735455497509765,7.479584455776367Q18.749866497509764,7.4071352457763675,18.749866497509764,7.333266735776367Q18.749866497509764,7.223185775776368,18.718234097509765,7.1177477257763675Q18.686601197509766,7.0123096657763675,18.626004197509765,6.920408591776368Q18.565406797509766,6.828507512776367,18.480956997509765,6.757895648776367Q18.396507297509764,6.687283785776367,18.295328097509767,6.6439175057763675L18.294809297509765,6.643695395776367Q15.666428797509766,5.517366545776367,13.037707267509766,6.643902365776367Q12.936521587509766,6.687265395776367,12.852065267509765,6.757877170776367Q12.767608937509765,6.828488942276367,12.707006807509766,6.920392557776367Q12.646404687509765,7.012296165776367,12.614769217509766,7.117738545776367Q12.583133697509766,7.223180885776367,12.583133697509766,7.333266735776367Q12.583133697509766,7.4071352457763675,12.597544787509765,7.479584395776367Q12.611955817509765,7.552033545776367,12.640224097509765,7.620279195776368Q12.668492377509766,7.688524785776368,12.709531547509766,7.749944205776368Q12.750570717509765,7.811363695776367,12.802803637509765,7.863596645776367Q12.855036617509766,7.915829645776367,12.916456077509766,7.956868745776367Q12.977875527509765,7.997907845776368,13.046121177509766,8.026176245776368Q13.114366817509765,8.054444545776366,13.186815977509765,8.068855645776367Q13.259265154509766,8.083266745776367,13.333133697509766,8.083266745776367Q13.487069737509765,8.083266745776367,13.628560427509766,8.022630945776367L13.628623427509766,8.022603845776366Q15.666125497509766,7.149461325776367,17.703300997509764,8.022143045776367Z" fill-rule="evenodd" fill="#CB9964" fill-opacity="1"/></g></g></svg>