<svg xmlns="http://www.w3.org/2000/svg" xmlns:xlink="http://www.w3.org/1999/xlink" fill="none" version="1.1" width="24" height="24" viewBox="0 0 24 24"><defs><clipPath id="master_svg0_238_614"><rect x="0" y="0" width="24" height="24" rx="0"/></clipPath></defs><g clip-path="url(#master_svg0_238_614)"><g><path d="M2,12.2307501L2,15Q2.00000006,15.098492,2.0192148100000002,15.195089Q2.03842956,15.291689,2.07612062,15.382683Q2.11381161,15.473677,2.16853046,15.55557Q2.22324938,15.637462,2.29289329,15.707106Q2.36253726,15.77675,2.44442981,15.831469Q2.52632242,15.886187,2.6173166,15.923878Q2.70831078,15.961569,2.80490969,15.980783Q2.9015086,16,3,16Q3.0984914,16,3.19509031,15.980783Q3.29168922,15.961569,3.3826834,15.923878Q3.47367758,15.886187,3.55557013,15.831468Q3.63746274,15.77675,3.70710671,15.707106Q3.77675062,15.637462,3.83146948,15.555569Q3.88618839,15.473677,3.92387944,15.382683Q3.9615705,15.291689,3.9807851899999998,15.19509Q3.99999994,15.098492,4,15L4,12.2307501Q4,8.814069700000001,6.3520427,6.4017254999999995Q8.6937323,3.9999994,12,3.99999857Q15.306267,4,17.647956999999998,6.4017257999999995Q20,8.8140702,20,12.2307501L20,15Q20,15.098492,20.019215,15.195089Q20.038429,15.291689,20.076118,15.382683Q20.113811,15.473677,20.16853,15.55557Q20.223248,15.637462,20.292892,15.707106Q20.362535,15.77675,20.444427,15.831469Q20.52632,15.886187,20.617313,15.923878Q20.708309,15.961569,20.804909,15.980783Q20.901508,16,21,16Q21.098492,16,21.195089,15.980783Q21.291687,15.961569,21.382681,15.923878Q21.473675,15.886187,21.555567,15.831468Q21.637461,15.77675,21.707106,15.707106Q21.776749,15.637462,21.831467,15.555569Q21.886187,15.473677,21.923878,15.382683Q21.961569,15.291689,21.980785,15.19509Q22,15.098492,22,15L22,12.2307501Q22,8.000432,19.079956,5.0055236999999995Q16.149562,2,12,1.9999986Q7.8504381,1.9999998,4.9200443,5.0055232Q2,8.000432,2,12.2307501Z" fill-rule="evenodd" fill="#888888" fill-opacity="1"/></g><g><path d="M16,16.000001L16,19.000001Q16.00000018,20.2426276,16.87868737,21.121313999999998Q17.75737453,22,19.000001,22L22.0000005,22L22.0000005,13L19.000001,13Q17.75737411,13.00000018,16.87868713,13.87868713Q16,14.75737429,16,16.000001ZM18.2929004,19.7070994Q18,19.4141994,18,19.000001L18,16.000001Q18,15.5858015,18.2929007,15.2929007Q18.5858014,15,19.000001,15L20.0000005,15L20.0000005,20L19.000001,20Q18.5858014,20,18.2929004,19.7070994Z" fill-rule="evenodd" fill="#888888" fill-opacity="1"/></g><g><path d="M21,16L22.0000005,16C22.5522995,16,22.9999995,16.44770002,22.9999995,16.99999905L22.9999995,17.9999995C22.9999995,18.5523,22.5522995,19,22.0000005,19L21,19L21,16Z" fill="#888888" fill-opacity="1"/></g><g><path d="M2.9999998999999997,16L2,16C1.44771495,16,1,16.44770002,1,16.99999905L1,17.9999995C1,18.5523,1.44771495,19,2,19L2.9999998999999997,19L2.9999998999999997,16Z" fill="#888888" fill-opacity="1"/></g><g><path d="M2,13L2,22.000000999999997L5.0000007,22.000000999999997Q6.2426257,22.000000999999997,7.1213131,21.121313100000002Q7.9999995,20.2426262,7.9999995,19.000001L7.9999995,16.000001Q7.9999995,14.75737453,7.1213126,13.87868728Q6.2426257,13,4.9999998,13L2,13ZM4,20.0000005L5.0000007,20.0000005Q5.414198900000001,20.0000005,5.7070992,19.7071004Q5.9999994999999995,19.4141998,5.9999994999999995,19.000001L5.9999994999999995,16.000001Q5.9999994999999995,15.5858014,5.7070989999999995,15.2929006Q5.414198600000001,15,4.9999998,15L4,15L4,20.0000005Z" fill-rule="evenodd" fill="#888888" fill-opacity="1"/></g></g></svg>