<svg xmlns="http://www.w3.org/2000/svg" xmlns:xlink="http://www.w3.org/1999/xlink" fill="none" version="1.1" width="144" height="64" viewBox="0 0 144 64"><defs><clipPath id="master_svg0_272_0280"><rect x="0" y="0" width="144" height="64" rx="0"/></clipPath></defs><g clip-path="url(#master_svg0_272_0280)"><g><g><path d="M24,19Q24,19.1718402,23.991568,19.3434739Q23.983135,19.5151072,23.966292,19.68612Q23.949449,19.8571329,23.924234,20.027113Q23.899019,20.197093000000002,23.865496,20.3656311Q23.83197,20.5341702,23.790217,20.700861Q23.748464,20.8675518,23.698582000000002,21.0319929Q23.648699,21.196434,23.590806,21.358228699999998Q23.532915,21.5200233,23.467154999999998,21.6787834Q23.401394,21.837543500000002,23.327923,21.9928856Q23.254452,22.148228,23.173448,22.299777Q23.092443,22.451326,23.004099,22.598719Q22.915755,22.746111,22.820286,22.88899Q22.724816,23.031869999999998,22.622452,23.169893000000002Q22.520086,23.307918,22.411073000000002,23.440753Q22.302058000000002,23.573587,22.186657,23.700912000000002Q22.071257,23.828238,21.949747000000002,23.949747000000002Q21.828238,24.071257,21.700912000000002,24.186658Q21.573587,24.302058000000002,21.440753,24.411073000000002Q21.307918,24.520086,21.169893000000002,24.622450999999998Q21.031869999999998,24.724816,20.88899,24.820286Q20.746111,24.915755,20.598719,25.004099Q20.451326,25.092443,20.299777,25.173448999999998Q20.148228,25.254454000000003,19.9928856,25.327925Q19.837543500000002,25.401396,19.6787834,25.467154999999998Q19.5200233,25.532916,19.358228699999998,25.590808000000003Q19.196434,25.648699,19.0319929,25.698583Q18.8675518,25.748465,18.700861,25.790218Q18.5341702,25.831971,18.3656311,25.865496Q18.197093000000002,25.899019,18.027113,25.924234Q17.8571329,25.94945,17.68612,25.966293Q17.5151072,25.983136000000002,17.3434734,25.991568Q17.1718402,26,17,26Q16.8281598,26,16.6565266,25.991568Q16.4848933,25.983135,16.313880400000002,25.966292Q16.1428671,25.949449,15.972886599999999,25.924234Q15.802906,25.899019,15.6343675,25.865496Q15.4658289,25.83197,15.2991385,25.790217Q15.132448199999999,25.748464,14.968007100000001,25.698582000000002Q14.803566,25.648699,14.6417708,25.590806Q14.4799757,25.532915,14.3212156,25.467154999999998Q14.162455600000001,25.401394,14.007114399999999,25.327923Q13.8517723,25.254452,13.700223,25.173448Q13.5486732,25.092443,13.401280400000001,25.004099Q13.253888100000001,24.915755,13.1110082,24.820286Q12.9681282,24.724816,12.8301048,24.622452Q12.6920815,24.520086,12.559247,24.411073000000002Q12.426412599999999,24.302058000000002,12.299087,24.186657Q12.171762000000001,24.071257,12.0502524,23.949747000000002Q11.9287429,23.828238,11.813342,23.700912000000002Q11.6979411,23.573587,11.5889268,23.440753Q11.4799124,23.307918,11.3775473,23.169893000000002Q11.275182000000001,23.031869999999998,11.1797127,22.88899Q11.0842432,22.746111,10.99589968,22.598719Q10.90755606,22.451326,10.82655108,22.299777Q10.74554604,22.148228,10.67207485,21.9928856Q10.59860361,21.837543500000002,10.53284317,21.6787834Q10.46708274,21.5200233,10.40919149,21.358228699999998Q10.35130021,21.196434,10.30141759,21.0319929Q10.25153497,20.8675518,10.20978118,20.700861Q10.16802739,20.5341702,10.13450301,20.3656311Q10.10097862,20.197093000000002,10.075764418,20.027113Q10.0505502,19.8571329,10.033706907,19.68612Q10.016863609,19.5151072,10.0084318044,19.3434734Q10,19.1718402,10,19Q10,18.8281598,10.0084318044,18.6565266Q10.016863609,18.4848933,10.033706907,18.313880400000002Q10.0505502,18.1428671,10.07576441,17.9728866Q10.10097862,17.802906,10.13450301,17.6343675Q10.16802739,17.465828899999998,10.20978117,17.299138499999998Q10.25153497,17.1324482,10.30141759,16.9680071Q10.35130021,16.803566,10.40919146,16.6417708Q10.46708274,16.4799757,10.53284317,16.321215600000002Q10.59860361,16.1624556,10.67207479,16.0071144Q10.74554598,15.8517723,10.82655102,15.700223Q10.90755594,15.5486732,10.99589956,15.401280400000001Q11.0842431,15.253888100000001,11.1797125,15.1110082Q11.2751819,14.9681282,11.3775471,14.8301048Q11.4799123,14.6920815,11.5889268,14.559247Q11.6979411,14.426412599999999,11.8133421,14.299087Q11.9287429,14.171762000000001,12.0502524,14.0502524Q12.171762000000001,13.9287429,12.299087,13.813342Q12.426412599999999,13.6979411,12.559247,13.5889268Q12.6920815,13.4799124,12.8301048,13.3775473Q12.9681282,13.275182000000001,13.1110082,13.1797127Q13.253888100000001,13.0842432,13.4012806,12.99589968Q13.5486729,12.90755606,13.7002227,12.82655108Q13.8517723,12.74554604,14.0071139,12.67207485Q14.162455600000001,12.59860361,14.3212156,12.53284317Q14.4799757,12.46708274,14.6417708,12.40919149Q14.803566,12.35130021,14.968007100000001,12.30141759Q15.132448199999999,12.25153497,15.2991385,12.20978118Q15.4658289,12.16802739,15.6343675,12.13450301Q15.802906,12.10097862,15.972886599999999,12.075764418Q16.1428671,12.0505502,16.31388,12.033706907Q16.4848928,12.016863609,16.6565266,12.0084318044Q16.8281598,12,17,12Q17.1718402,12,17.3434739,12.0084318044Q17.5151072,12.016863609,17.68612,12.033706907Q17.8571329,12.0505502,18.027113,12.07576441Q18.197093000000002,12.10097862,18.3656311,12.13450301Q18.5341702,12.16802739,18.700861,12.20978117Q18.8675518,12.25153497,19.0319929,12.30141759Q19.196434,12.35130021,19.358228699999998,12.40919146Q19.5200233,12.46708274,19.6787834,12.53284317Q19.837543500000002,12.59860361,19.9928856,12.67207479Q20.148228,12.74554598,20.299777,12.82655102Q20.451326,12.90755594,20.598719,12.99589956Q20.746111,13.0842431,20.88899,13.1797125Q21.031869999999998,13.2751819,21.169893000000002,13.3775471Q21.307918,13.4799123,21.440753,13.5889268Q21.573587,13.6979411,21.700912000000002,13.8133421Q21.828238,13.9287429,21.949747000000002,14.0502524Q22.071257,14.171762000000001,22.186658,14.299087Q22.302058000000002,14.426412599999999,22.411073000000002,14.559247Q22.520086,14.6920815,22.622450999999998,14.8301048Q22.724816,14.9681282,22.820286,15.1110082Q22.915755,15.253888100000001,23.004099,15.4012806Q23.092443,15.5486729,23.173448999999998,15.7002227Q23.254454000000003,15.8517723,23.327925,16.0071139Q23.401396,16.1624556,23.467154999999998,16.321215600000002Q23.532916,16.4799757,23.590808000000003,16.6417708Q23.648699,16.803566,23.698583,16.9680071Q23.748465,17.1324482,23.790218,17.299138499999998Q23.831971,17.465828899999998,23.865496,17.6343675Q23.899019,17.802906,23.924234,17.9728866Q23.94945,18.1428671,23.966293,18.31388Q23.983136000000002,18.4848928,23.991568,18.6565266Q24,18.8281598,24,19ZM21,19Q21,18.8034925,20.98074,18.6079316Q20.961477000000002,18.412370199999998,20.92314,18.219637900000002Q20.884804000000003,18.026907,20.827761000000002,17.838861Q20.770718000000002,17.6508155,20.695517000000002,17.4692659Q20.620317,17.2877169,20.527684,17.1144128Q20.435051,16.9411087,20.325877,16.7777185Q20.216704,16.6143289,20.092041000000002,16.4624267Q19.9673786,16.3105245,19.828426399999998,16.1715727Q19.6894751,16.0326209,19.5375729,15.9079578Q19.3856697,15.7832949,19.2222795,15.6741209Q19.058889399999998,15.5649476,18.8855858,15.4723146Q18.7122822,15.3796816,18.5307331,15.3044815Q18.349184,15.2292814,18.1611376,15.1722386Q17.9730921,15.1151955,17.7803607,15.0768588Q17.5876293,15.0385222,17.3920679,15.0192611Q17.1965075,15,17,15Q16.8034925,15,16.6079316,15.0192611Q16.412370199999998,15.0385222,16.219637900000002,15.0768588Q16.026907,15.1151955,15.838861,15.1722386Q15.6508155,15.2292814,15.4692659,15.3044815Q15.2877169,15.3796816,15.1144128,15.4723148Q14.941108700000001,15.5649476,14.777718499999999,15.6741211Q14.6143289,15.7832952,14.4624267,15.907958Q14.3105245,16.0326209,14.171572699999999,16.1715727Q14.032620900000001,16.3105245,13.9079578,16.4624267Q13.7832949,16.6143289,13.6741209,16.7777185Q13.5649476,16.9411087,13.4723146,17.1144128Q13.3796816,17.2877169,13.3044815,17.4692659Q13.2292814,17.6508155,13.1722386,17.8388615Q13.1151953,18.026907,13.0768585,18.2196383Q13.0385222,18.4123707,13.0192611,18.6079321Q13,18.8034925,13,19Q13,19.1965075,13.0192611,19.3920684Q13.0385222,19.5876293,13.0768585,19.7803607Q13.1151953,19.9730921,13.1722386,20.1611385Q13.2292814,20.349184,13.3044815,20.5307331Q13.3796816,20.7122822,13.4723148,20.8855858Q13.5649476,21.058889399999998,13.6741211,21.2222795Q13.7832952,21.3856697,13.907958,21.5375729Q14.032620900000001,21.6894751,14.171572699999999,21.828426399999998Q14.3105245,21.9673786,14.4624267,22.092042Q14.6143289,22.216704,14.777718499999999,22.325877Q14.941108700000001,22.435051,15.1144128,22.527683Q15.2877169,22.620317,15.4692659,22.695517000000002Q15.6508155,22.770718000000002,15.8388615,22.827761000000002Q16.026907,22.884804000000003,16.2196383,22.92314Q16.4123707,22.961477000000002,16.6079321,22.98074Q16.8034925,23,17,23Q17.1965075,23,17.3920684,22.98074Q17.5876293,22.961477000000002,17.7803607,22.92314Q17.9730921,22.884804000000003,18.1611385,22.827761000000002Q18.349184,22.770718000000002,18.5307331,22.695517000000002Q18.7122822,22.620317,18.8855858,22.527684Q19.058889399999998,22.435051,19.2222795,22.325877Q19.3856697,22.216704,19.5375729,22.092041000000002Q19.6894751,21.9673786,19.828426399999998,21.828426399999998Q19.9673786,21.6894751,20.092042,21.5375729Q20.216704,21.3856697,20.325877,21.2222795Q20.435051,21.058889399999998,20.527683,20.8855858Q20.620317,20.7122822,20.695517000000002,20.5307331Q20.770718000000002,20.349184,20.827761000000002,20.1611376Q20.884804000000003,19.9730921,20.92314,19.7803607Q20.961477000000002,19.5876293,20.98074,19.3920679Q21,19.1965075,21,19Z" fill="#FFFFFF" fill-opacity="1"/></g><g><path d="M38,26Q38,26.1472917,37.992772,26.2944064Q37.985545,26.441520699999998,37.971108,26.5881033Q37.956671,26.7346859,37.935059,26.8803825Q37.913446,27.0260801,37.88471,27.1705418Q37.855975,27.315003400000002,37.820187000000004,27.4578815Q37.784397,27.6007586,37.741642,27.7417083Q37.698885000000004,27.8826571,37.649263,28.0213385Q37.599642,28.1600199,37.543276,28.2960997Q37.48691,28.4321795,37.423935,28.5653305Q37.36096,28.6984806,37.291527,28.8283806Q37.222094,28.958280600000002,37.14637,29.084616699999998Q37.070647,29.2109528,36.988816,29.3334208Q36.906985,29.4558897,36.819244,29.574194900000002Q36.731503000000004,29.6925011,36.638062,29.8063593Q36.544622000000004,29.9202166,36.445707,30.029352Q36.346792,30.138489,36.24264,30.24264Q36.13849,30.34679,36.029354,30.445706Q35.920218500000004,30.544621,35.8063612,30.638061999999998Q35.692503,30.731503,35.574196799999996,30.819243Q35.4558907,30.906985,35.3334217,30.988816Q35.2109528,31.070647,35.0846167,31.146371000000002Q34.9582806,31.222094,34.8283815,31.291527000000002Q34.698480599999996,31.36096,34.5653305,31.423935Q34.4321804,31.48691,34.2961006,31.543276Q34.1600208,31.599642,34.0213394,31.649262999999998Q33.8826575,31.698885,33.7417088,31.741642Q33.600759,31.784397,33.457881,31.820187Q33.3150034,31.855975,33.1705418,31.88471Q33.0260801,31.913446,32.880383,31.935057999999998Q32.7346859,31.956671,32.5881033,31.971108Q32.4415207,31.985545000000002,32.2944059,31.992773Q32.1472917,32,32,32Q31.8527079,32,31.7055931,31.992772000000002Q31.558479300000002,31.985545000000002,31.4118967,31.971108Q31.2653141,31.956671,31.1196165,31.935059000000003Q30.9739189,31.913446,30.8294573,31.88471Q30.6849957,31.855975,30.5421181,31.820187Q30.399241,31.784397,30.2582917,31.741642Q30.117342,31.698885,29.9786606,31.649262999999998Q29.8399789,31.599642,29.7038991,31.543276Q29.5678196,31.48691,29.4346693,31.423935Q29.3015192,31.36096,29.1716194,31.291527000000002Q29.0417197,31.222094,28.9153833,31.146369999999997Q28.789047,31.070647,28.6665783,30.988816Q28.5441098,30.906985,28.4258039,30.819243999999998Q28.307498,30.731503,28.1936402,30.638061999999998Q28.079782,30.544622,27.9706461,30.445707Q27.8615103,30.346792,27.7573593,30.24264Q27.6532083,30.138489999999997,27.5542933,30.029353999999998Q27.4553782,29.9202185,27.3619373,29.806361199999998Q27.2684963,29.692503000000002,27.1807548,29.5741968Q27.093013,29.455890699999998,27.0111822,29.333421700000002Q26.92935133,29.2109528,26.85362822,29.084616699999998Q26.777905230000002,28.958280600000002,26.70847237,28.8283815Q26.63903952,28.6984806,26.57606423,28.5653305Q26.51308888,28.4321804,26.45672277,28.296100600000003Q26.40035665,28.160020799999998,26.3507356,28.021339400000002Q26.3011145,27.8826575,26.25835797,27.741708799999998Q26.21560144,27.600759,26.17981246,27.457881Q26.14402349,27.315003400000002,26.1152883,27.1705418Q26.086553112,27.0260801,26.064940937,26.880383000000002Q26.043328751,26.7346859,26.028891638,26.5881033Q26.014454524,26.441520699999998,26.007227262,26.2944059Q26,26.1472917,26,26Q26,25.8527079,26.007227262,25.7055931Q26.014454524,25.558479300000002,26.028891638,25.4118967Q26.043328751,25.2653141,26.064940929,25.1196165Q26.086553112,24.9739189,26.1152883,24.8294573Q26.14402349,24.6849957,26.17981246,24.5421181Q26.21560144,24.399241,26.25835797,24.2582917Q26.3011145,24.117342,26.35073557,23.9786606Q26.40035665,23.8399789,26.45672277,23.7038991Q26.51308888,23.5678196,26.57606423,23.4346693Q26.63903958,23.3015192,26.70847243,23.1716194Q26.77790529,23.0417197,26.8536284,22.9153833Q26.92935145,22.789047,27.0111823,22.6665783Q27.0930133,22.5441098,27.1807548,22.4258039Q27.2684964,22.307498,27.3619373,22.1936402Q27.4553782,22.079782,27.5542932,21.9706461Q27.6532083,21.8615103,27.7573593,21.7573593Q27.8615103,21.6532083,27.9706461,21.5542933Q28.079782,21.4553782,28.1936402,21.3619373Q28.307498,21.2684963,28.4258039,21.1807548Q28.5441098,21.093013,28.6665783,21.0111822Q28.789047,20.92935133,28.9153833,20.85362822Q29.0417199,20.777905230000002,29.1716199,20.70847237Q29.3015194,20.63903952,29.4346695,20.57606423Q29.5678196,20.51308888,29.7038991,20.45672277Q29.8399789,20.40035665,29.9786606,20.3507356Q30.117342,20.3011145,30.2582917,20.25835797Q30.399241,20.21560144,30.5421185,20.17981246Q30.6849961,20.14402349,30.8294578,20.1152883Q30.9739189,20.086553112,31.1196165,20.064940937Q31.2653141,20.043328751,31.4118967,20.028891638Q31.558479300000002,20.014454524,31.7055931,20.007227262Q31.8527079,20,32,20Q32.1472917,20,32.2944064,20.007227262Q32.4415207,20.014454524,32.5881033,20.028891638Q32.7346859,20.043328751,32.880382499999996,20.064940929Q33.0260801,20.086553112,33.1705418,20.1152883Q33.3150034,20.14402349,33.4578815,20.17981246Q33.6007586,20.21560144,33.7417083,20.25835797Q33.8826571,20.3011145,34.0213385,20.35073557Q34.1600199,20.40035665,34.2960997,20.45672277Q34.432179500000004,20.51308888,34.5653305,20.57606423Q34.698480599999996,20.63903958,34.8283806,20.70847243Q34.9582806,20.77790529,35.0846167,20.8536284Q35.2109528,20.92935145,35.3334208,21.0111823Q35.4558897,21.0930133,35.5741949,21.1807548Q35.6925011,21.2684964,35.8063593,21.3619373Q35.9202166,21.4553782,36.029352,21.5542932Q36.138489,21.6532083,36.24264,21.7573593Q36.34679,21.8615103,36.445706,21.9706461Q36.544621,22.079782,36.638062,22.1936402Q36.731503000000004,22.307498,36.819243,22.4258039Q36.906985,22.5441098,36.988816,22.6665783Q37.070647,22.789047,37.146371,22.9153833Q37.222094,23.0417199,37.291527,23.1716199Q37.36096,23.3015194,37.423935,23.4346695Q37.48691,23.5678196,37.543276,23.7038991Q37.599642,23.8399789,37.649263,23.9786606Q37.698885000000004,24.117342,37.741642,24.2582917Q37.784397,24.399241,37.820187000000004,24.5421185Q37.855975,24.6849961,37.88471,24.8294578Q37.913446,24.9739189,37.935058,25.1196165Q37.956671,25.2653141,37.971108,25.4118967Q37.985545,25.558479300000002,37.992773,25.7055931Q38,25.8527079,38,26ZM35,26Q35,25.8526196,34.9855547,25.7059488Q34.9711094,25.5592775,34.9423561,25.4147286Q34.913603800000004,25.2701802,34.870821,25.1291456Q34.8280392,24.9881115,34.7716379,24.8519492Q34.7152386,24.7157879,34.6457634,24.5858102Q34.5762882,24.455832,34.4944077,24.333289100000002Q34.412528,24.2107468,34.3190308,24.0968204Q34.2255344,23.982893699999998,34.1213198,23.8786798Q34.0171061,23.774466,33.9031796,23.6809688Q33.7892528,23.5874715,33.6667099,23.5055909Q33.5441675,23.4237108,33.414189300000004,23.3542359Q33.2842116,23.2847614,33.1480494,23.2283611Q33.011888,23.1719613,32.8708539,23.129179Q32.7298193,23.0863967,32.5852704,23.0576441Q32.4407225,23.0288918,32.2940512,23.0144458Q32.1473808,23,32,23Q31.8526196,23,31.7059488,23.0144458Q31.5592775,23.0288918,31.4147286,23.0576441Q31.2701802,23.0863967,31.1291456,23.129179Q30.9881115,23.1719613,30.8519492,23.2283611Q30.7157879,23.2847614,30.5858102,23.3542359Q30.455832,23.4237106,30.333289100000002,23.5055907Q30.2107468,23.5874712,30.0968204,23.6809685Q29.982893699999998,23.774466,29.8786798,23.8786795Q29.774466,23.9828935,29.6809688,24.0968204Q29.5874715,24.2107468,29.5055909,24.333289100000002Q29.4237108,24.455832,29.3542359,24.5858097Q29.2847614,24.7157879,29.2283611,24.8519492Q29.1719613,24.9881115,29.1291788,25.1291456Q29.0863967,25.2701802,29.0576439,25.4147286Q29.0288916,25.5592775,29.0144458,25.7059488Q29,25.8526196,29,26Q29,26.1473808,29.0144458,26.2940516Q29.0288916,26.4407225,29.0576439,26.5852709Q29.0863967,26.7298198,29.1291788,26.8708544Q29.1719613,27.0118885,29.2283611,27.1480498Q29.2847614,27.2842121,29.3542359,27.4141898Q29.4237106,27.5441675,29.5055907,27.6667099Q29.5874712,27.7892528,29.6809685,27.9031796Q29.774466,28.0171061,29.8786795,28.121319800000002Q29.9828935,28.2255344,30.0968204,28.3190308Q30.2107468,28.412528000000002,30.333289100000002,28.4944077Q30.455832,28.5762882,30.5858097,28.6457634Q30.7157879,28.7152386,30.8519492,28.7716379Q30.9881115,28.8280392,31.1291456,28.870821Q31.2701802,28.9136038,31.4147286,28.942356099999998Q31.5592775,28.9711094,31.7059488,28.9855547Q31.8526196,29,32,29Q32.1473808,29,32.2940516,28.9855547Q32.4407225,28.9711094,32.5852709,28.942356099999998Q32.7298198,28.9136038,32.8708544,28.870821Q33.0118885,28.8280392,33.1480498,28.7716379Q33.2842121,28.7152386,33.4141898,28.6457634Q33.5441675,28.5762882,33.6667099,28.4944077Q33.7892528,28.412528000000002,33.9031796,28.3190308Q34.0171061,28.2255344,34.1213198,28.121319800000002Q34.2255344,28.0171061,34.3190308,27.9031796Q34.412528,27.7892528,34.4944077,27.6667099Q34.5762882,27.5441675,34.6457634,27.4141893Q34.7152386,27.2842116,34.7716379,27.148049399999998Q34.8280392,27.011888,34.870821,26.8708539Q34.913603800000004,26.7298193,34.9423561,26.5852704Q34.9711094,26.4407225,34.9855547,26.2940512Q35,26.1473808,35,26Z" fill="#FFFFFF" fill-opacity="1"/></g><g><path d="M68,24.999999000000003Q68.613716,24.999997999999998,69.226692,24.990965Q69.839668,24.981931,70.45043,24.963884999999998Q71.061188,24.945839,71.668261,24.918823Q72.275331,24.891807999999997,72.877254,24.855888Q73.47917699999999,24.819969,74.074501,24.775232000000003Q74.669827,24.730497,75.257114,24.677052Q75.84440599999999,24.623606000000002,76.422241,24.561579000000002Q77.000084,24.499552,77.567081,24.429094Q78.134083,24.358637,78.688873,24.279918000000002Q79.243668,24.2012,79.78491600000001,24.114407999999997Q80.326164,24.027617,80.852562,23.932962Q81.37896,23.838307999999998,81.88924800000001,23.73602Q82.399536,23.633732000000002,82.89247900000001,23.524054Q83.385422,23.414377,83.85982899999999,23.297577Q84.334236,23.180775,84.788971,23.057131Q85.243706,22.933487,85.677666,22.803299000000003Q86.111626,22.67311,86.523777,22.53669Q86.93592100000001,22.40027,87.32526,22.257948Q87.71459200000001,22.115625,88.080185,21.967743Q88.44577000000001,21.81986,88.78673599999999,21.666774Q89.127701,21.513688000000002,89.443214,21.355767999999998Q89.758724,21.197847,90.04802699999999,21.035474Q90.33733000000001,20.873099,90.599728,20.706661Q90.862122,20.540224000000002,91.096981,20.370124Q91.331841,20.200025,91.53859700000001,20.026671999999998Q91.74535,19.853321100000002,91.92350400000001,19.6771345Q92.101654,19.500948,92.250774,19.3223505Q92.399895,19.143753099999998,92.519627,18.963175800000002Q92.639359,18.7825985,92.729408,18.6004772Q92.819458,18.4183559,92.879616,18.2351284Q92.93977000000001,18.051899900000002,92.969887,17.8680072Q93,17.684114,93,17.4999995Q93,17.3158846,92.969887,17.1319919Q92.939774,16.9480987,92.87962,16.764870600000002Q92.819458,16.5816422,92.729408,16.3995199Q92.639359,16.2173986,92.519627,16.0368218Q92.399895,15.856245000000001,92.250774,15.677648099999999Q92.101654,15.499051099999999,91.92350400000001,15.3228645Q91.74535,15.1466775,91.53859299999999,14.973325299999999Q91.331841,14.799973,91.096981,14.6298733Q90.862122,14.4597735,90.599728,14.293335899999999Q90.337334,14.1268983,90.04803100000001,13.964524Q89.75872799999999,13.8021493,89.443214,13.6442289Q89.127701,13.486308600000001,88.78673599999999,13.333222899999999Q88.44577000000001,13.1801372,88.080185,13.0322549Q87.71459200000001,12.8843727,87.32526,12.7420504Q86.93592100000001,12.5997276,86.523773,12.4633076Q86.111626,12.3268876,85.677666,12.1966989Q85.243706,12.0665102,84.788971,11.9428663Q84.334236,11.8192225,83.85982899999999,11.7024214Q83.385422,11.5856202,82.89247900000001,11.4759431Q82.399536,11.3662663,81.889252,11.2639776Q81.378963,11.161688999999999,80.852562,11.0670352Q80.326164,10.97238135,79.78491600000001,10.88559043Q79.243668,10.7987994,78.688873,10.72008026Q78.134083,10.64136106,77.567081,10.57090342Q77.000084,10.50044578,76.422245,10.43841943Q75.84440599999999,10.37639308,75.25711799999999,10.32294744Q74.669827,10.26950178,74.074505,10.22476557Q73.479179,10.18002935,72.877256,10.14411037Q72.275333,10.10819139,71.668261,10.081176154Q71.061188,10.054160934,70.450428,10.036114544Q69.839668,10.018068153,69.226692,10.0090340767Q68.613716,10,68,10Q67.386284,10,66.773308,10.0090340767Q66.160332,10.018068153,65.549572,10.036114544Q64.93881,10.054160934,64.331736,10.081176162Q63.724663,10.10819139,63.12274,10.14411037Q62.520817,10.18002935,61.925495,10.22476555Q61.330169999999995,10.26950178,60.742882,10.32294744Q60.155594,10.37639308,59.577753,10.43841943Q58.999912,10.50044578,58.432913,10.57090342Q57.865913,10.64136106,57.311121,10.7200802Q56.75633,10.7987994,56.215082,10.88559043Q55.673832000000004,10.97238147,55.14743,11.0670353Q54.621029,11.161688999999999,54.110744,11.2639778Q53.600458,11.3662663,53.107517,11.4759433Q52.614576299999996,11.5856203,52.1401682,11.7024214Q51.6657591,11.8192225,51.2110262,11.9428663Q50.7562923,12.0665102,50.32233,12.1966989Q49.8883677,12.3268876,49.4762216,12.4633076Q49.0640755,12.5997276,48.6747389,12.7420502Q48.285401300000004,12.8843727,47.9198112,13.0322549Q47.5542212,13.1801372,47.2132592,13.333222899999999Q46.8722973,13.486308600000001,46.5567844,13.6442289Q46.241271499999996,13.8021493,45.9519682,13.9645243Q45.6626647,14.1268988,45.4002676,14.293336400000001Q45.1378703,14.459774,44.9030114,14.6298738Q44.6681527,14.7999735,44.4613982,14.9733257Q44.2546437,15.146678,44.0764915,15.3228645Q43.89833927,15.499051099999999,43.74921852,15.6776476Q43.60009789,15.856245000000001,43.48036793,16.0368218Q43.36063796,16.2173986,43.27058721,16.3995204Q43.18053646,16.5816422,43.12038182,16.764870600000002Q43.060227182,16.9480987,43.030113591,17.1319914Q43,17.3158846,43,17.4999995Q43,17.684114,43.030113591,17.8680072Q43.060227182,18.051899900000002,43.12038182,18.2351284Q43.18053646,18.4183559,43.27058721,18.6004772Q43.36063796,18.7825985,43.48036793,18.963175800000002Q43.60009789,19.143753099999998,43.74921858,19.3223495Q43.89833927,19.500948,44.0764915,19.6771345Q44.2546437,19.853321100000002,44.4613981,20.026671999999998Q44.6681527,20.200025,44.9030114,20.370124Q45.1378703,20.540224000000002,45.4002674,20.706661Q45.6626647,20.873099,45.9519682,21.035474Q46.241271499999996,21.197847,46.5567844,21.355767999999998Q46.8722973,21.513688000000002,47.2132592,21.666774Q47.5542212,21.81986,47.9198112,21.967743Q48.285401300000004,22.115625,48.6747384,22.257948Q49.0640755,22.40027,49.4762216,22.53669Q49.8883677,22.67311,50.32233,22.803299000000003Q50.7562923,22.933487,51.2110252,23.057131Q51.6657581,23.180775,52.1401672,23.297577Q52.6145754,23.414377,53.107516000000004,23.524055Q53.600457,23.633732000000002,54.110743,23.73602Q54.621029,23.838307999999998,55.14743,23.932962Q55.673832000000004,24.027617,56.215081,24.114407999999997Q56.756329,24.2012,57.311121,24.279919Q57.865913,24.358637,58.432913,24.429094Q58.999912,24.499552,59.577753,24.561578Q60.155594,24.623604999999998,60.742884000000004,24.677051Q61.330173,24.730496000000002,61.925495,24.775233Q62.520819,24.819969,63.122742,24.855888Q63.724667,24.891807999999997,64.331738,24.918823Q64.938812,24.945839,65.549572,24.963884999999998Q66.160332,24.981931,66.773308,24.990963999999998Q67.386284,24.999997999999998,68,24.999999000000003ZM89.860672,17.499998599999998Q89.700081,17.332849500000002,89.432823,17.1303258Q87.958355,16.0129976,84.81562,15.070177600000001Q77.915028,13,68,13Q58.084966,13,51.1843739,15.070177600000001Q48.041656,16.012993299999998,46.5671825,17.1303258Q46.2999237,17.3328505,46.1393311,17.5000005Q46.2999225,17.6671495,46.5671818,17.8696742Q48.041651200000004,18.987004300000002,51.1843748,19.929821Q58.084964,21.999997999999998,68,21.999997999999998Q77.915031,21.999997999999998,84.81562,19.929821Q87.958351,18.9870024,89.432819,17.8696733Q89.700081,17.6671467,89.860672,17.499998599999998Z" fill-rule="evenodd" fill="#FFFFFF" fill-opacity="1"/></g><g><path d="M67.5,25Q68.003246,25,68.505888,24.9939775Q69.008528,24.9879551,69.509352,24.975924499999998Q70.010174,24.963892899999998,70.507975,24.945881800000002Q71.00577200000001,24.9278717,71.49934999999999,24.9039259Q71.992928,24.879980099999997,72.481092,24.8501549Q72.969257,24.8203316,73.450836,24.784701300000002Q73.932411,24.749071100000002,74.40624,24.7077198Q74.88007,24.6663685,75.345009,24.6193972Q75.80994799999999,24.572425799999998,76.264877,24.5199461Q76.719807,24.4674664,77.163631,24.409606Q77.607456,24.3517456,78.039104,24.288641900000002Q78.470753,24.2255392,78.88918699999999,24.157346699999998Q79.307621,24.0891542,79.71183400000001,24.016037Q80.11604700000001,23.9429188,80.50506200000001,23.8650522Q80.89407700000001,23.787184699999997,81.26696,23.7047548Q81.639839,23.6223259,81.995689,23.5355339Q82.35154,23.448741,82.689499,23.3577948Q83.027458,23.2668476,83.34671800000001,23.171966599999998Q83.665974,23.077084499999998,83.965755,22.9784961Q84.265541,22.8799076,84.545128,22.7778502Q84.824715,22.6757927,85.08343500000001,22.5705128Q85.34215499999999,22.4652328,85.579388,22.356983200000002Q85.81661199999999,22.248733,86.03177600000001,22.1377749Q86.246944,22.0268164,86.439529,21.9134169Q86.632114,21.8000169,86.801655,21.6844487Q86.971191,21.568881,87.117279,21.4514232Q87.263363,21.3339653,87.385643,21.2149005Q87.507919,21.095835700000002,87.606098,20.9754515Q87.70427699999999,20.8550663,87.778118,20.7336521Q87.851959,20.6122379,87.901291,20.4900861Q87.950615,20.3679338,87.975307,20.2453384Q88,20.1227431,88,20Q88,19.8772569,87.975307,19.7546616Q87.950615,19.6320662,87.901291,19.5099144Q87.851959,19.3877621,87.778118,19.2663474Q87.70427699999999,19.1449327,87.606098,19.0245481Q87.507919,18.9041634,87.385639,18.7850986Q87.263363,18.6660342,87.117279,18.5485766Q86.971191,18.4311185,86.80165099999999,18.3155506Q86.632114,18.1999824,86.439529,18.0865827Q86.246944,17.9731827,86.03178,17.8622246Q85.81661199999999,17.751266,85.579388,17.6430163Q85.34215499999999,17.5347667,85.08343500000001,17.4294863Q84.824715,17.3242059,84.545128,17.222148699999998Q84.265541,17.1200914,83.965755,17.0215032Q83.665974,16.9229152,83.34671800000001,16.8280334Q83.027458,16.7331517,82.689499,16.642205Q82.35154,16.551258400000002,81.995689,16.464466Q81.639839,16.3776735,81.26696,16.2952442Q80.89407700000001,16.212815,80.50506200000001,16.1349477Q80.11604700000001,16.0570803,79.71183400000001,15.98396218Q79.307621,15.91084421,78.88918699999999,15.84265178Q78.470753,15.77445936,78.039104,15.71135676Q77.607456,15.64825428,77.163631,15.5903936Q76.719807,15.53253293,76.264877,15.48005345Q75.809946,15.42757404,75.345007,15.38060227Q74.880068,15.3336305,74.40624,15.2922796Q73.932411,15.25092873,73.450834,15.2152983Q72.969257,15.17966786,72.48109099999999,15.14984372Q71.992926,15.12001957,71.49934999999999,15.096073583Q71.00577200000001,15.072127596,70.507975,15.054117441Q70.010174,15.036107291,69.509352,15.024076365Q69.008528,15.012045437,68.505886,15.0060227183Q68.003246,15,67.5,15Q66.996754,15,66.494114,15.0060227183Q65.991472,15.012045437,65.490648,15.024076365Q64.989824,15.036107291,64.492023,15.054117441Q63.994225,15.072127596,63.500647,15.096073583Q63.007069,15.12001957,62.518905000000004,15.14984371Q62.030741,15.17966786,61.549164,15.2152983Q61.067586,15.25092873,60.593757,15.29227963Q60.119927000000004,15.3336305,59.654988,15.38060227Q59.190049,15.42757404,58.73512,15.48005345Q58.28019,15.53253293,57.836366999999996,15.5903936Q57.392542,15.64825428,56.9608927,15.71135688Q56.5292435,15.77445936,56.1108093,15.84265178Q55.6923752,15.91084421,55.2881641,15.98396218Q54.8839526,16.0570803,54.4949379,16.1349477Q54.1059227,16.212815,53.7330413,16.2952442Q53.3601599,16.3776735,53.0043106,16.464466Q52.6484613,16.551258400000002,52.3105016,16.642205Q51.9725418,16.7331518,51.6532855,16.8280336Q51.3340292,16.9229152,51.0342455,17.0215034Q50.7344615,17.1200914,50.4548726,17.222148699999998Q50.1752837,17.3242059,49.9165633,17.4294863Q49.6578426,17.5347667,49.420614,17.6430163Q49.1833851,17.751266,48.9682193,17.8622241Q48.7530537,17.9731827,48.5604694,18.0865824Q48.3678851,18.1999822,48.1983465,18.315550299999998Q48.0288078,18.4311185,47.88272303,18.5485766Q47.73663819,18.6660345,47.61435926,18.785099Q47.49208027,18.9041638,47.39390171,19.0245485Q47.29572314,19.1449327,47.22188152,19.2663474Q47.14803991,19.3877621,47.0987131,19.5099144Q47.049386293,19.6320662,47.024693146,19.7546616Q47,19.8772569,47,20Q47,20.1227431,47.024693146,20.2453384Q47.049386293,20.3679338,47.0987131,20.4900861Q47.14803991,20.6122379,47.22188152,20.7336521Q47.29572314,20.8550663,47.39390171,20.9754515Q47.49208027,21.095835700000002,47.61435926,21.2149005Q47.73663825,21.3339653,47.88272309,21.4514232Q48.0288079,21.568881,48.1983465,21.6844492Q48.3678851,21.8000164,48.5604694,21.9134164Q48.7530537,22.0268164,48.9682193,22.1377745Q49.1833851,22.248733,49.420614,22.356983200000002Q49.6578426,22.4652328,49.916563,22.5705128Q50.1752837,22.6757927,50.4548726,22.7778502Q50.7344615,22.8799076,51.0342455,22.9784956Q51.3340292,23.0770836,51.6532855,23.1719656Q51.9725418,23.2668476,52.3105016,23.3577938Q52.6484613,23.448741,53.0043106,23.5355339Q53.3601599,23.6223259,53.7330413,23.7047558Q54.1059227,23.787185700000002,54.4949379,23.8650532Q54.8839526,23.942920700000002,55.2881641,24.0160379Q55.6923752,24.0891552,56.1108093,24.157347700000003Q56.5292435,24.225540199999998,56.9608927,24.2886429Q57.392542,24.3517456,57.836366999999996,24.409606Q58.28019,24.4674664,58.73512,24.5199461Q59.190049,24.572425799999998,59.654988,24.6193972Q60.119927000000004,24.6663685,60.593757,24.7077198Q61.067586,24.749071100000002,61.549164,24.784701300000002Q62.030741,24.8203316,62.518905000000004,24.8501568Q63.007069,24.879980099999997,63.500647,24.9039268Q63.994225,24.9278727,64.492023,24.9458828Q64.989824,24.963893900000002,65.490648,24.975924499999998Q65.991472,24.9879551,66.494112,24.9939775Q66.996754,25,67.5,25ZM83.418007,20Q82.51263,19.678493500000002,81.284817,19.3790269Q75.63081,18,67.5,18Q59.369189,18,53.7151794,19.3790269Q52.4873662,19.678493500000002,51.5819921,20Q52.4873657,20.321506499999998,53.7151804,20.6209731Q59.369189,22,67.5,22Q75.63081,22,81.284817,20.6209731Q82.51263,20.321507,83.418007,20Z" fill-rule="evenodd" fill="#FFFFFF" fill-opacity="1"/></g><g><path d="M93.15332000000001,27.1346226L93.02024800000001,17.97820252L90.020569,18.02179748L90.153641,27.178216900000002Q90.287437,36.384584000000004,83.824337,42.942295Q77.36124000000001,49.5,68.1539,49.5Q59.136379,49.5,52.7126226,43.171406000000005Q46.2888689,36.842813,46.1542939,27.826293L45.999833,17.477614433L43.000167,17.522385567L43.1546279,27.871064Q43.3075509,38.116997,50.6071906,45.308498Q57.906831,52.5,68.1539,52.5Q78.61667299999999,52.5,85.961018,45.048145000000005Q93.305363,37.596292,93.15332000000001,27.1346226Z" fill-rule="evenodd" fill="#FFFFFF" fill-opacity="1"/></g><g><path d="" fill="#D8D8D8" fill-opacity="1"/><path d="M59.1227398,49.6176459Q58.5,48.74915355,58.5,48L55.5,48Q55.5,49.7135571,56.68471411,51.3657966Q57.74068516,52.8384871,59.5580187,54.0049758Q63.445145600000004,56.5,68.5,56.5Q73.55485300000001,56.5,77.44198,54.0049758Q79.259314,52.8384871,80.315285,51.3657954Q81.500002,49.713552,81.500002,48L78.5,48Q78.5,48.74915016,77.877258,49.6176447Q77.155762,50.623867,75.821472,51.480305200000004Q72.674887,53.4999995,68.5,53.5000005Q64.3251114,53.5000005,61.1785245,51.4803057Q59.8442369,50.6238682,59.1227398,49.6176459Z" fill-rule="evenodd" fill="#FFFFFF" fill-opacity="1"/></g><g><path d="M59.86723763,38.408112C60.0214133,38.234769,60.7537473,38.119207,61.3704498,38.119207L62.8736618,38.119207L62.8736618,40.276367C61.408993699999996,40.488231,60.0599571,40.680834000000004,59,40.815656000000004L59.4625268,43.030597L62.8736618,42.414266L62.8736618,46L64.993576,46L64.993576,42.029058L66.7087798,41.720893000000004L66.5931482,39.717815L64.993576,39.968201L64.993576,38.119207L66.5160608,38.119207L66.5160608,36.0390892L64.993576,36.0390892L64.993576,33.2655983L62.8736618,33.2655983L62.8736618,36.0390892L61.775161,36.0390892C62.2376876,34.9027281,62.7002144,33.612284700000004,63.1049252,32.2640605L66.689508,32.2640605L66.689508,30.1069009L63.7023554,30.1069009C63.8372593,29.5465451,63.9528913,28.96662748,64.0685229,28.4059718L61.8715205,28C61.775161,28.69608063,61.659529,29.4111203,61.5053535,30.1069009L59.25053537,30.1069009L59.25053537,32.2640605L61.0042827,32.2640605C60.6573877,33.5159831,60.3297646,34.5175214,60.1755888,34.9219885C59.82869387,35.7887044,59.57815844,36.3279934,59.17344756,36.4435558C59.40471095,36.9828463,59.75160605,38.003645,59.86723763,38.408112ZM67.3640261,28.97053987L67.3640261,31.0506585L72.837258,31.0506585C71.314775,33.0922556,68.8286943,34.7679062,66.2077088,35.6538825C66.689508,36.1353912,67.3447542,37.021368,67.6338329,37.5991774C69.079229,37.021368,70.486082,36.2702131,71.738758,35.345716C73.184155,36.0968704,74.72591,36.9828463,75.554604,37.6184378L76.942184,35.7887044C76.152035,35.2301531,74.783727,34.5175214,73.453962,33.8819299C74.648822,32.707048900000004,75.631693,31.3010433,76.30621,29.6831733L74.687366,28.87363744L74.263383,28.97053987L67.3640261,28.97053987ZM67.3640261,37.8880816L67.3640261,39.987460999999996L70.678802,39.987460999999996L70.678802,43.531365L66.4004288,43.531365L66.4004288,45.669264L77,45.669264L77,43.531365L73.010707,43.531365L73.010707,39.987460999999996L76.171307,39.987460999999996L76.171307,37.8880816L67.3640261,37.8880816Z" fill="#FFFFFF" fill-opacity="1"/></g><g><path d="M107.645695,28.50590456L107.645695,43.067949C107.645695,45.625153999999995,108.168645,46.430574,110.17999,46.430574C110.542031,46.430574,111.768953,46.430574,112.151108,46.430574C114.02166,46.430574,114.544611,45.121769,114.745745,41.618194C114.122227,41.477246,113.15678199999999,40.993995,112.613718,40.551014C112.533264,43.531065,112.432697,44.296213,111.92986,44.296213C111.668386,44.296213,110.82362,44.296213,110.602373,44.296213C110.119649,44.296213,110.039194,44.135128,110.039194,43.088084L110.039194,28.50590456L107.645695,28.50590456ZM105.6343479,28C103.2810736,28.62734562,99.5198555,29.0728432,96.20113456,29.2751421C96.44249618,29.7785295,96.74419808,30.6644905,96.8246519,31.2081492C100.2238269,31.0671999,104.2062931,30.7047617,107.142858,29.9597485L105.6343479,28ZM99.8617842,31.671265599999998C100.2238269,32.7183099,100.6864362,34.1076584,100.8473439,35.0338907L102.8788037,34.3090134C102.677669,33.423051799999996,102.21505930000001,32.0941105,101.7926764,31.0671999L99.8617842,31.671265599999998ZM104.60856150000001,30.5235429C104.2465191,31.751807200000002,103.5626616,33.4431872,103.019598,34.5103688L104.890151,35.2352452C105.4734402,34.2486072,106.197525,32.7384453,106.881383,31.349097L104.60856150000001,30.5235429ZM96.62351727,32.194787500000004C97.0861268,33.1612911,97.6493039,34.4499617,97.9308923,35.3560576L97.0257865,35.3560576L97.0257865,37.369607L102.4966483,37.369607C101.8932438,38.074349,101.1892729,38.799227,100.54564189999999,39.302614L100.54564189999999,40.248981L96,40.57115L96.22124808,42.806188L100.54564189999999,42.443749L100.54564189999999,44.497568C100.54564189999999,44.739194999999995,100.4651885,44.779467,100.1835999,44.779467C99.9221249,44.799600999999996,98.9365654,44.799600999999996,98.1119134,44.779467C98.4136155,45.363396,98.7354307,46.289626999999996,98.8359981,46.933962C100.1835999,46.933962,101.1691594,46.89369,101.9133573,46.571524C102.6977825,46.229219,102.8788037,45.625153999999995,102.8788037,44.578109999999995L102.8788037,42.242395L106.619908,41.900091L106.599794,39.745594L102.8788037,40.047626L102.8788037,39.946949000000004C104.1057253,38.920038,105.3728724,37.5910969,106.338319,36.4433746L104.7895832,35.2151098L104.266633,35.3560576L98.4136155,35.3560576L100.0226917,34.671452C99.7209904,33.8056264,99.1175864,32.4766846,98.5544095,31.449775L96.62351727,32.194787500000004ZM120.49819600000001,41.497381000000004C119.774111,42.846458,118.406395,44.175399999999996,116.97833800000001,45.000956C117.541515,45.323124,118.527075,46.068135999999996,118.98968500000001,46.511116C120.437855,45.484209,121.986591,43.873368,122.91181399999999,42.181988000000004L120.49819600000001,41.497381000000004ZM127.899948,42.564562C129.307892,43.712283,131.057762,45.363396,131.84219000000002,46.45071L133.91387600000002,45.101633C133.028881,43.994181,131.21867,42.443749,129.830841,41.376569L127.899948,42.564562ZM124.903046,32.0538392C123.21351200000001,34.4700975,119.753996,36.3024273,115.87209899999999,37.2890644C116.35482400000001,37.752182,117.058794,38.779091,117.360497,39.363019C117.88344599999999,39.201936,118.386282,39.040853,118.869005,38.859633L118.869005,41.054401L124.279526,41.054401L124.279526,44.53784C124.279526,44.759329,124.199076,44.839872,123.917484,44.860006C123.676125,44.860006,122.75090399999999,44.860006,121.986591,44.819735C122.268181,45.464071000000004,122.529655,46.350032999999996,122.610109,46.994368C123.997938,47.015133,125.023726,46.994368,125.788038,46.652065C126.572458,46.329899,126.773596,45.745968000000005,126.773596,44.598246L126.773596,41.054401L131.96286800000001,41.054401L131.96286800000001,38.819362999999996C132.445591,38.980446,132.928314,39.141529,133.411041,39.282476C133.752968,38.658277999999996,134.45694,37.7119112,135,37.2085218C131.942753,36.5440512,128.704487,35.074162,126.793711,33.4633231L127.155752,32.9599357L124.903046,32.0538392ZM124.279526,36.7252703L124.279526,38.799227L119.050026,38.799227C121.544096,37.8729925,123.736464,36.6245937,125.446108,34.9936204C127.216091,36.564189,129.54925500000002,37.9132643,131.922646,38.799227L126.773596,38.799227L126.773596,36.7252703L124.279526,36.7252703ZM128.06086,28.019506736L128.06086,29.7986652L122.690563,29.7986652L122.690563,28.019506736L120.196493,28.019506736L120.196493,29.7986652L116.475502,29.7986652L116.475502,32.0337033L120.196493,32.0337033L120.196493,33.6042714L122.690563,33.6042714L122.690563,32.0337033L128.06086,32.0337033L128.06086,33.6042714L130.575039,33.6042714L130.575039,32.0337033L134.376488,32.0337033L134.376488,29.7986652L130.575039,29.7986652L130.575039,28.019506736L128.06086,28.019506736Z" fill="#FFFFFF" fill-opacity="1"/></g></g></g></svg>